<?xml version="1.0" encoding="utf-8"?>
<!-- Generator: Adobe Illustrator 21.0.1, SVG Export Plug-In . SVG Version: 6.00 Build 0)  -->
<svg version="1.1" id="logo" xmlns="http://www.w3.org/2000/svg" xmlns:xlink="http://www.w3.org/1999/xlink" x="0px" y="0px"
	 viewBox="0 0 490 100" style="enable-background:new 0 0 490 100;" xml:space="preserve">
<style type="text/css">
	.st0{fill:#FFFFFF;}
</style>
<path class="st0" d="M110.1,9.1c-9.3-2.9-18.8-5.2-18.9-5.2l-0.8-0.2l-0.8,0.2c-0.1,0-9.5,2.4-18.9,5.2C53,14.5,49.8,17.3,49.8,20.6
	v0.2c0,6.4,0.4,22.8,4.8,38.7C61,83,73.3,95.7,90.3,96.2h0.1h0.1c17-0.5,29.3-13.2,35.7-36.7c4.3-15.9,4.8-32.4,4.8-38.7v-0.2
	C131,17.3,127.8,14.6,110.1,9.1z M90.5,90c-14.1-0.5-24.1-11.2-29.7-32c-0.4-1.6-0.8-3.1-1.2-4.7h27l-8.9,12.5
	c-0.6,0.9-0.4,2.2,0.5,2.8c0.9,0.6,2.2,0.4,2.8-0.5l10.6-14.8h29.8c-0.4,1.6-0.7,3.1-1.2,4.7C114.6,78.8,104.6,89.5,90.5,90z
	 M122.2,49.2H94.5l8.9-12.5c0.6-0.9,0.4-2.2-0.5-2.8s-2.2-0.4-2.8,0.5L89.5,49.2H58.8c-2.2-11.6-2.5-22.4-2.5-27.6
	c2.8-2.1,16-6.8,34.3-11.4c18.3,4.6,31.5,9.3,34.3,11.4C124.7,26.8,124.4,37.6,122.2,49.2z"/>
<path class="st0" d="M166.3,16.1h15.8c2.2,0,4.3,0.2,6.2,0.6s3.7,1.1,5.1,2.1c1.5,1,2.6,2.3,3.5,4s1.3,3.8,1.3,6.3s-0.4,4.6-1.2,6.2
	c-0.8,1.7-1.9,3-3.3,4c-1.4,1-3.1,1.7-5,2.1c-1.9,0.4-4,0.6-6.2,0.6h-6.8v16.6h-9.4L166.3,16.1L166.3,16.1z M175.7,34.1h6.2
	c0.8,0,1.7-0.1,2.4-0.2c0.8-0.2,1.5-0.4,2.1-0.8c0.6-0.4,1.1-0.9,1.5-1.6c0.4-0.7,0.6-1.5,0.6-2.5c0-1.1-0.3-2-0.8-2.6
	c-0.5-0.7-1.1-1.2-1.9-1.5c-0.8-0.4-1.7-0.6-2.6-0.7s-1.9-0.2-2.8-0.2h-4.8v10.1H175.7z"/>
<path class="st0" d="M219.6,16.1h7.8l18.5,42.5h-10.6l-3.7-9h-16.5l-3.5,9h-10.3L219.6,16.1z M223.2,28.5L218,41.7h10.4L223.2,28.5z
	"/>
<path class="st0" d="M255.6,16.1H272c2.2,0,4.2,0.2,6.2,0.6c1.9,0.4,3.6,1.1,5.1,2.1s2.6,2.3,3.5,4s1.3,3.7,1.3,6.2
	c0,3-0.8,5.6-2.3,7.7c-1.6,2.1-3.8,3.4-6.8,4l10.8,18h-11.2l-8.9-17h-4.6v17h-9.4V16.1H255.6z M264.9,33.7h5.5c0.8,0,1.7,0,2.7-0.1
	c0.9-0.1,1.8-0.2,2.6-0.5c0.8-0.3,1.4-0.8,1.9-1.4c0.5-0.6,0.8-1.5,0.8-2.7c0-1.1-0.2-1.9-0.7-2.6c-0.4-0.6-1-1.1-1.7-1.5
	c-0.7-0.3-1.5-0.6-2.3-0.7c-0.9-0.1-1.7-0.2-2.6-0.2H265L264.9,33.7L264.9,33.7z"/>
<path class="st0" d="M315.9,16.1h7.8l18.5,42.5h-10.6l-3.7-9h-16.5l-3.5,9h-10.3L315.9,16.1z M319.5,28.5l-5.2,13.2h10.4L319.5,28.5
	z"/>
<path class="st0" d="M351.9,16.1H366c3.4,0,6.6,0.4,9.7,1.1s5.7,2,8,3.7s4.1,3.9,5.4,6.6s2,6,2,9.9c0,3.4-0.7,6.5-2,9.1
	s-3.1,4.8-5.3,6.6c-2.2,1.8-4.7,3.1-7.6,4.1c-2.9,0.9-5.9,1.4-9.1,1.4h-15.3L351.9,16.1L351.9,16.1z M361.3,50h4.9
	c2.2,0,4.2-0.2,6-0.7c1.9-0.4,3.5-1.2,4.8-2.2s2.4-2.4,3.2-4c0.8-1.7,1.2-3.7,1.2-6.1c0-2.1-0.4-3.9-1.2-5.4
	c-0.8-1.5-1.8-2.8-3.2-3.8c-1.3-1-2.9-1.8-4.7-2.3c-1.8-0.5-3.7-0.8-5.6-0.8h-5.5V50H361.3z"/>
<path class="st0" d="M403.2,16.1h28.9v8.7h-19.5v7.9H431v8.7h-18.4V50h20.6v8.7h-30V16.1z"/>
<path class="st0" d="M321.3,73.3c-0.6-0.8-1.6-1.2-2.7-1.2c-2.4,0-4.2,2-4.2,4.7c0,2.7,1.8,4.7,4.1,4.7c1.3,0,2.3-0.6,3-1.6l2.7,2
	c-1.2,1.7-3.3,2.5-5.2,2.5c-4.5,0-7.8-3-7.8-7.6c0-4.6,3.3-7.6,7.8-7.6c1.6,0,3.7,0.6,4.9,2.1L321.3,73.3z"/>
<path class="st0" d="M335.8,69.2c4.5,0,7.8,3,7.8,7.6c0,4.6-3.3,7.6-7.8,7.6c-4.5,0-7.8-3-7.8-7.6C328,72.1,331.3,69.2,335.8,69.2z
	 M335.8,81.4c2.7,0,4.5-2,4.5-4.7c0-2.7-1.8-4.7-4.5-4.7s-4.5,2-4.5,4.7C331.3,79.5,333.1,81.4,335.8,81.4z"/>
<path class="st0" d="M348.8,69.5h4.3l6.2,10.1h0V69.5h3.2V84h-4.2l-6.3-10.3h0V84h-3.2V69.5z"/>
<path class="st0" d="M368.5,69.5h4.3l6.2,10.1h0V69.5h3.2V84h-4.2l-6.3-10.3h0V84h-3.2V69.5z"/>
<path class="st0" d="M388.3,69.5h9.8v2.9h-6.7v2.7h6.3v2.9h-6.3v2.9h7V84h-10.2V69.5z"/>
<path class="st0" d="M413.5,73.3c-0.6-0.8-1.6-1.2-2.7-1.2c-2.4,0-4.2,2-4.2,4.7c0,2.7,1.8,4.7,4.1,4.7c1.3,0,2.3-0.6,3-1.6l2.7,2
	c-1.2,1.7-3.3,2.5-5.2,2.5c-4.5,0-7.8-3-7.8-7.6c0-4.6,3.3-7.6,7.8-7.6c1.6,0,3.7,0.6,4.9,2.1L413.5,73.3z"/>
<path class="st0" d="M425.6,72.3h-4.1v-2.8h11.5v2.8h-4.1V84h-3.2V72.3z"/>
</svg>
