<?xml version="1.0" encoding="UTF-8"?>
<svg width="25px" height="25px" viewBox="0 0 25 25" version="1.1" xmlns="http://www.w3.org/2000/svg" xmlns:xlink="http://www.w3.org/1999/xlink">
    <!-- Generator: Sketch 57.1 (83088) - https://sketch.com -->
    <title>icon/loup plus</title>
    <desc>Created with Sketch.</desc>
    <g id="mobile" stroke="none" stroke-width="1" fill="none" fill-rule="evenodd">
        <g id="B2B/vue-park/Ouvert-Copy" transform="translate(-1299.000000, -599.000000)" fill="#4A4A4A">
            <g id="icon/loup-plus" transform="translate(1299.000000, 599.000000)">
                <path d="M3.97574881,3.06506107 C8.2700251,-1.07433095 15.0879817,-1.01317739 19.3073878,3.20222796 C23.4326821,7.32733176 23.5715636,13.9519212 19.7253658,18.246007 L19.7253658,18.246007 L24.7672017,23.2878429 C25.0030525,23.5257893 25.0021,23.9094756 24.7652965,24.146279 C24.5284932,24.3830824 24.1448069,24.3840349 23.9068604,24.1481841 L23.9068604,24.1481841 L18.8650246,19.1063482 C14.4179596,23.0809494 7.60705178,22.762989 3.54938836,18.3913658 C-0.508275071,14.0199331 -0.318718033,7.20426259 3.97574881,3.06506107 Z M18.3828448,3.99836749 C14.5638899,0.215037845 8.40090519,0.243804803 4.61738505,4.0625692 C0.834055411,7.88171464 0.862822369,14.0445088 4.68158677,17.828029 C8.47653748,21.6231702 14.6517148,21.6233607 18.4470465,17.828029 C22.2421877,14.0326972 22.2421877,7.85771041 18.4470465,4.0625692 L18.4470465,4.0625692 Z M11.5629831,6.68741013 C11.899042,6.68741013 12.1712802,6.9598388 12.1712802,7.29570719 L12.1712802,7.29570719 L12.1712802,10.3356684 L15.2139085,10.3356684 C15.5499674,10.3356684 15.8222056,10.6082877 15.8222056,10.9439655 C15.8222056,11.2800244 15.5499674,11.5522626 15.2139085,11.5522626 L15.2139085,11.5522626 L12.1712802,11.5522626 L12.1712802,14.5950815 C12.1712802,14.9309499 11.899042,15.2033786 11.5629831,15.2033786 C11.2273052,15.2033786 10.954686,14.9309499 10.954686,14.5950815 L10.954686,14.5950815 L10.954686,11.5522626 L7.91453426,11.5522626 C7.57885637,11.5522626 7.30623715,11.2800244 7.30623715,10.9439655 C7.30623715,10.6082877 7.57885637,10.3356684 7.91453426,10.3356684 L7.91453426,10.3356684 L10.954686,10.3356684 L10.954686,7.29570719 C10.954686,6.9598388 11.2273052,6.68741013 11.5629831,6.68741013 Z" id="Combined-Shape"></path>
            </g>
        </g>
    </g>
</svg>