<?xml version="1.0" standalone="no"?>
<!DOCTYPE svg PUBLIC "-//W3C//DTD SVG 20010904//EN"
 "http://www.w3.org/TR/2001/REC-SVG-20010904/DTD/svg10.dtd">
<svg version="1.0" xmlns="http://www.w3.org/2000/svg"
 width="300.000000pt" height="168.000000pt" viewBox="0 0 300.000000 168.000000"
 preserveAspectRatio="xMidYMid meet">
<metadata>
Created by potrace 1.10, written by Peter Selinger 2001-2011
</metadata>
<g transform="translate(0.000000,168.000000) scale(0.100000,-0.100000)"
fill="#000000" stroke="none">
<path d="M57 1662 c-10 -10 -17 -24 -17 -32 0 -7 10 -1 21 14 24 31 21 45 -4
18z"/>
<path d="M330 1655 c0 -30 36 -65 66 -65 14 0 35 16 58 42 46 56 36 64 -12 10
-28 -32 -42 -41 -58 -36 -23 6 -48 49 -39 65 4 5 1 9 -4 9 -6 0 -11 -11 -11
-25z"/>
<path d="M395 1669 c-11 -17 1 -21 15 -4 8 9 8 15 2 15 -6 0 -14 -5 -17 -11z"/>
<path d="M770 1655 c0 -31 32 -65 61 -65 12 0 37 17 55 37 39 43 46 68 9 33
-14 -13 -25 -29 -25 -36 0 -16 -39 -25 -61 -13 -20 10 -33 44 -24 59 3 5 1 10
-4 10 -6 0 -11 -11 -11 -25z"/>
<path d="M826 1664 c-4 -10 -1 -14 6 -12 15 5 23 28 10 28 -5 0 -13 -7 -16
-16z"/>
<path d="M1210 1670 c-7 -42 20 -80 57 -80 23 0 65 36 84 73 18 32 -9 18 -30
-17 -12 -19 -29 -37 -38 -40 -24 -9 -61 20 -66 51 -2 16 -5 21 -7 13z"/>
<path d="M1265 1669 c-11 -17 1 -21 15 -4 8 9 8 15 2 15 -6 0 -14 -5 -17 -11z"/>
<path d="M1640 1657 c0 -29 39 -67 67 -67 13 0 36 17 57 42 46 56 36 64 -13
11 -28 -31 -43 -41 -58 -37 -24 7 -49 47 -39 63 4 6 2 11 -3 11 -6 0 -11 -10
-11 -23z"/>
<path d="M1705 1669 c-11 -17 1 -21 15 -4 8 9 8 15 2 15 -6 0 -14 -5 -17 -11z"/>
<path d="M2080 1651 c0 -32 30 -61 63 -61 19 0 87 65 87 83 0 5 -17 -9 -39
-32 -21 -22 -44 -41 -50 -41 -20 0 -53 41 -48 61 3 10 1 19 -4 19 -5 0 -9 -13
-9 -29z"/>
<path d="M2136 1665 c-3 -8 -1 -15 3 -15 5 0 11 7 15 15 3 8 1 15 -3 15 -5 0
-11 -7 -15 -15z"/>
<path d="M2520 1670 c-5 -27 2 -44 22 -62 36 -31 64 -21 107 40 12 17 18 32
12 32 -5 0 -19 -15 -30 -34 -12 -19 -29 -37 -38 -40 -24 -9 -61 20 -66 51 -2
16 -5 21 -7 13z"/>
<path d="M2575 1669 c-11 -17 1 -21 15 -4 8 9 8 15 2 15 -6 0 -14 -5 -17 -11z"/>
<path d="M2940 1660 c0 -11 4 -20 8 -20 4 0 8 9 9 20 1 11 -2 20 -8 20 -5 0
-9 -9 -9 -20z"/>
<path d="M86 1615 c-20 -30 -41 -55 -46 -55 -6 0 -10 -5 -10 -10 0 -18 42 10
47 31 3 10 9 19 14 19 4 0 16 13 25 30 15 24 25 30 63 33 l46 3 -51 2 -51 2
-37 -55z"/>
<path d="M486 1610 c-25 -33 -46 -63 -46 -67 0 -13 41 32 67 72 23 37 31 42
66 43 57 3 60 12 4 12 -44 0 -47 -2 -91 -60z"/>
<path d="M998 1663 c12 -2 32 -2 45 0 12 2 2 4 -23 4 -25 0 -35 -2 -22 -4z"/>
<path d="M1396 1662 c-6 -11 80 -9 90 1 4 4 -13 7 -39 7 -25 0 -48 -4 -51 -8z"/>
<path d="M1818 1638 c-15 -17 -25 -34 -22 -37 3 -3 16 7 30 24 17 22 33 30 60
31 52 3 55 14 3 14 -37 0 -48 -5 -71 -32z"/>
<path d="M2243 1625 c-18 -24 -33 -49 -33 -55 0 -5 -5 -9 -11 -7 -6 1 -14 -4
-16 -10 -12 -33 20 -7 59 47 39 55 46 60 74 56 17 -2 37 0 45 5 9 6 -3 9 -36
8 -47 0 -52 -2 -82 -44z"/>
<path d="M2670 1612 c-60 -76 -62 -89 -6 -27 26 27 46 56 46 64 0 10 10 12 40
8 22 -3 43 -1 46 4 3 5 -14 9 -38 9 -40 0 -46 -3 -88 -58z"/>
<path d="M925 1613 c-16 -21 -35 -44 -43 -50 -9 -7 -12 -16 -8 -20 7 -8 32 18
77 80 11 15 16 27 11 27 -5 0 -22 -17 -37 -37z"/>
<path d="M1350 1598 c-40 -46 -48 -60 -28 -53 13 6 72 85 66 90 -2 2 -19 -15
-38 -37z"/>
<path d="M2960 1615 c7 -9 15 -13 17 -11 7 7 -7 26 -19 26 -6 0 -6 -6 2 -15z"/>
<path d="M150 1616 c0 -9 30 -14 35 -6 4 6 -3 10 -14 10 -12 0 -21 -2 -21 -4z"/>
<path d="M540 1589 c-12 -16 -20 -33 -16 -36 3 -3 13 8 23 25 10 17 25 33 33
36 12 3 11 4 -2 5 -9 0 -26 -13 -38 -30z"/>
<path d="M977 1594 c-10 -13 -17 -30 -15 -36 3 -7 13 2 23 19 10 18 22 30 26
27 4 -2 10 0 14 6 14 22 -31 8 -48 -16z"/>
<path d="M1411 1589 c-13 -17 -20 -34 -16 -37 4 -4 11 2 17 12 6 10 19 27 29
37 13 13 15 19 6 19 -7 0 -23 -14 -36 -31z"/>
<path d="M1878 1613 c7 -3 16 -2 19 1 4 3 -2 6 -13 5 -11 0 -14 -3 -6 -6z"/>
<path d="M2287 1594 c-10 -13 -17 -30 -15 -36 3 -7 13 2 23 19 10 18 22 30 26
27 4 -2 10 0 14 6 14 22 -31 8 -48 -16z"/>
<path d="M2722 1590 c-27 -37 -28 -49 -2 -25 11 10 20 25 20 33 0 8 6 12 15 8
8 -3 15 -1 15 4 0 20 -27 9 -48 -20z"/>
<path d="M136 1587 c-11 -8 -17 -20 -14 -27 2 -8 10 -3 21 14 20 30 19 32 -7
13z"/>
<path d="M1842 1579 c-7 -11 -11 -23 -9 -25 7 -7 29 24 25 36 -2 6 -9 1 -16
-11z"/>
<path d="M1765 1570 c-10 -11 -16 -22 -13 -25 2 -3 14 6 26 20 26 30 13 34
-13 5z"/>
<path d="M658 1498 c-37 -39 -73 -98 -61 -98 4 0 19 17 33 37 14 21 36 48 49
61 13 12 21 25 18 29 -4 3 -21 -10 -39 -29z"/>
<path d="M147 1495 c-10 -14 -13 -26 -7 -30 5 -3 10 0 10 8 0 8 7 17 15 21 8
3 15 10 15 16 0 17 -14 11 -33 -15z"/>
<path d="M217 1491 c-15 -16 -27 -32 -27 -36 0 -3 -8 -14 -18 -25 -13 -14 -35
-20 -82 -23 l-65 -3 73 -2 c39 -1 72 2 72 6 0 4 22 31 48 60 27 29 43 52 38
52 -6 0 -23 -13 -39 -29z"/>
<path d="M581 1492 c-22 -32 -26 -42 -13 -42 10 0 45 60 39 66 -3 3 -14 -8
-26 -24z"/>
<path d="M1019 1491 c-20 -27 -29 -31 -73 -33 l-51 -1 45 -6 c53 -8 71 -1 94
34 25 38 12 43 -15 6z"/>
<path d="M1093 1498 c-28 -32 -53 -71 -53 -83 0 -5 12 4 26 22 13 18 24 35 24
39 -1 4 11 15 27 25 17 12 22 19 12 19 -8 0 -25 -10 -36 -22z"/>
<path d="M1457 1491 c-9 -16 -17 -33 -17 -38 1 -9 26 21 41 50 17 29 -6 19
-24 -12z"/>
<path d="M1545 1512 c-20 -14 -77 -92 -68 -94 4 -1 -26 -4 -67 -8 l-75 -6 72
-2 71 -2 23 36 c12 20 33 47 48 60 23 22 20 34 -4 16z"/>
<path d="M1893 1492 c-14 -25 -26 -32 -58 -35 l-40 -4 45 -1 c41 -2 47 1 64
29 10 17 15 33 12 36 -3 3 -13 -8 -23 -25z"/>
<path d="M1972 1504 c-12 -8 -22 -19 -22 -25 0 -5 -9 -18 -21 -30 -11 -11 -18
-24 -14 -27 4 -4 16 7 28 23 12 17 32 40 44 53 25 25 18 29 -15 6z"/>
<path d="M2331 1494 c-20 -25 -27 -44 -17 -44 8 0 48 61 43 66 -2 3 -14 -7
-26 -22z"/>
<path d="M2395 1488 c-15 -18 -32 -43 -38 -55 -9 -19 -19 -23 -81 -26 l-71 -3
72 -2 72 -2 31 45 c17 24 40 51 52 60 17 12 19 15 6 15 -9 0 -28 -15 -43 -32z"/>
<path d="M2764 1490 c-15 -25 -25 -30 -68 -33 l-51 -3 54 -2 c55 -2 64 3 92
51 6 11 6 17 0 17 -5 0 -18 -13 -27 -30z"/>
<path d="M2848 1508 c-8 -7 -25 -29 -38 -48 -13 -19 -30 -41 -38 -47 -14 -12
-14 -13 1 -13 9 0 21 9 27 21 7 11 28 38 47 60 34 37 34 53 1 27z"/>
<path d="M1255 1473 c4 -10 10 -30 13 -45 4 -26 22 -40 22 -18 0 17 -28 80
-36 80 -3 0 -3 -8 1 -17z"/>
<path d="M249 1449 c-16 -18 -28 -34 -25 -36 2 -2 -6 -15 -18 -28 -19 -20 -34
-25 -97 -28 l-74 -3 81 -2 81 -2 42 60 c23 33 47 58 52 55 5 -4 9 -1 9 4 0 20
-22 11 -51 -20z"/>
<path d="M385 1463 c4 -10 11 -31 15 -48 7 -28 8 -28 9 -5 1 35 -9 70 -21 70
-6 0 -7 -8 -3 -17z"/>
<path d="M708 1470 c-16 -10 -88 -104 -88 -117 0 -3 9 2 20 12 11 10 20 21 20
26 0 4 12 21 27 38 58 66 122 17 82 -62 -11 -21 -10 -21 6 -5 22 20 24 74 4
92 -20 20 -52 27 -71 16z"/>
<path d="M817 1472 c6 -4 16 -23 21 -42 6 -19 11 -27 11 -18 2 27 -17 68 -31
68 -10 0 -10 -2 -1 -8z"/>
<path d="M1145 1469 c-21 -11 -91 -106 -83 -114 2 -2 23 20 47 50 29 38 49 55
65 55 28 0 51 -39 41 -70 -5 -15 -4 -20 4 -16 12 8 15 55 3 72 -6 10 -47 35
-54 33 -2 0 -12 -5 -23 -10z"/>
<path d="M1583 1469 c-11 -4 -30 -22 -41 -41 -11 -18 -30 -43 -42 -55 -11 -13
-15 -23 -9 -23 13 0 27 16 65 73 32 49 75 52 94 8 10 -24 9 -33 -5 -55 -11
-16 -13 -26 -6 -26 6 0 11 7 11 15 0 8 5 15 10 15 15 0 12 43 -5 67 -17 25
-43 33 -72 22z"/>
<path d="M1690 1471 c0 -6 5 -13 10 -16 6 -3 11 -18 11 -33 1 -18 3 -21 6 -9
6 24 -5 67 -17 67 -6 0 -10 -4 -10 -9z"/>
<path d="M2013 1465 c-24 -17 -87 -105 -74 -105 5 0 26 23 46 50 25 34 44 50
58 50 23 0 49 -13 48 -24 -1 -3 -1 -21 0 -38 0 -31 1 -32 10 -9 20 51 -44 107
-88 76z"/>
<path d="M2129 1466 c7 -8 14 -27 17 -42 7 -39 14 -43 14 -10 0 32 -16 66 -32
66 -7 0 -7 -4 1 -14z"/>
<path d="M2458 1469 c-10 -5 -34 -31 -54 -57 -34 -45 -38 -47 -97 -53 l-62 -6
67 -1 67 -2 38 55 c31 45 43 54 68 55 23 0 27 3 15 10 -18 12 -21 12 -42 -1z"/>
<path d="M2569 1466 c6 -7 12 -25 13 -40 2 -23 18 -39 18 -17 0 20 -23 71 -32
71 -7 0 -6 -5 1 -14z"/>
<path d="M2893 1473 c-17 -6 -83 -98 -83 -114 0 -7 8 -2 17 11 10 14 17 26 16
27 -1 1 11 16 27 33 33 35 59 38 85 10 18 -19 18 -22 2 -58 l-17 -37 20 24
c11 13 20 31 20 41 0 36 -55 76 -87 63z"/>
<path d="M324 1455 c24 -25 29 -54 12 -80 -13 -19 -13 -23 -2 -19 14 5 26 35
26 66 0 18 -26 48 -41 48 -6 0 -4 -7 5 -15z"/>
<path d="M53 1453 c15 -2 37 -2 50 0 12 2 0 4 -28 4 -27 0 -38 -2 -22 -4z"/>
<path d="M483 1453 c15 -2 37 -2 50 0 12 2 0 4 -28 4 -27 0 -38 -2 -22 -4z"/>
<path d="M1353 1453 c15 -2 39 -2 55 0 15 2 2 4 -28 4 -30 0 -43 -2 -27 -4z"/>
<path d="M2233 1453 c15 -2 37 -2 50 0 12 2 0 4 -28 4 -27 0 -38 -2 -22 -4z"/>
<path d="M2518 1439 c17 -18 15 -49 -5 -71 -14 -15 -14 -19 -3 -16 32 7 41 82
13 93 -15 5 -16 4 -5 -6z"/>
<path d="M709 1388 c-57 -75 -56 -75 -29 -56 14 9 24 21 23 27 -2 6 1 11 7 11
10 0 34 39 28 46 -3 2 -15 -11 -29 -28z"/>
<path d="M2020 1391 c-12 -17 -17 -31 -11 -31 13 0 46 48 38 56 -2 3 -15 -9
-27 -25z"/>
<path d="M2883 1376 c-18 -25 -26 -43 -19 -40 18 7 58 63 54 75 -2 6 -18 -10
-35 -35z"/>
<path d="M265 1375 c-15 -19 -26 -38 -23 -41 3 -2 18 12 33 31 15 20 25 39 22
41 -3 3 -17 -11 -32 -31z"/>
<path d="M488 1403 c12 -2 30 -2 40 0 9 3 -1 5 -23 4 -22 0 -30 -2 -17 -4z"/>
<path d="M558 1403 c7 -3 16 -2 19 1 4 3 -2 6 -13 5 -11 0 -14 -3 -6 -6z"/>
<path d="M927 1403 c18 -2 50 -2 70 0 21 2 7 4 -32 4 -38 0 -55 -2 -38 -4z"/>
<path d="M1136 1376 c-14 -19 -26 -38 -26 -42 0 -10 29 16 51 48 29 40 7 35
-25 -6z"/>
<path d="M1571 1371 c-17 -21 -31 -43 -31 -47 0 -11 70 68 70 79 0 14 -8 7
-39 -32z"/>
<path d="M1808 1403 c23 -2 59 -2 80 0 20 2 1 4 -43 4 -44 0 -61 -2 -37 -4z"/>
<path d="M2439 1363 c-38 -54 -24 -50 21 7 17 22 27 40 21 40 -5 0 -24 -21
-42 -47z"/>
<path d="M2673 1403 c15 -2 39 -2 55 0 15 2 2 4 -28 4 -30 0 -43 -2 -27 -4z"/>
<path d="M373 1353 c9 -2 23 -2 30 0 6 3 -1 5 -18 5 -16 0 -22 -2 -12 -5z"/>
<path d="M503 1353 c20 -2 54 -2 75 0 20 2 3 4 -38 4 -41 0 -58 -2 -37 -4z"/>
<path d="M803 1353 c9 -2 25 -2 35 0 9 3 1 5 -18 5 -19 0 -27 -2 -17 -5z"/>
<path d="M918 1353 c7 -3 16 -2 19 1 4 3 -2 6 -13 5 -11 0 -14 -3 -6 -6z"/>
<path d="M968 1353 c12 -2 30 -2 40 0 9 3 -1 5 -23 4 -22 0 -30 -2 -17 -4z"/>
<path d="M1203 1353 c9 -2 25 -2 35 0 9 3 1 5 -18 5 -19 0 -27 -2 -17 -5z"/>
<path d="M1363 1353 c15 -2 37 -2 50 0 12 2 0 4 -28 4 -27 0 -38 -2 -22 -4z"/>
<path d="M1448 1353 c7 -3 16 -2 19 1 4 3 -2 6 -13 5 -11 0 -14 -3 -6 -6z"/>
<path d="M1788 1353 c6 -2 18 -2 25 0 6 3 1 5 -13 5 -14 0 -19 -2 -12 -5z"/>
<path d="M1853 1353 c15 -2 37 -2 50 0 12 2 0 4 -28 4 -27 0 -38 -2 -22 -4z"/>
<path d="M2108 1353 c12 -2 30 -2 40 0 9 3 -1 5 -23 4 -22 0 -30 -2 -17 -4z"/>
<path d="M2540 1356 c0 -2 11 -6 25 -8 14 -3 25 -1 25 3 0 5 -11 9 -25 9 -14
0 -25 -2 -25 -4z"/>
<path d="M2663 1353 c9 -2 25 -2 35 0 9 3 1 5 -18 5 -19 0 -27 -2 -17 -5z"/>
<path d="M2738 1353 c12 -2 30 -2 40 0 9 3 -1 5 -23 4 -22 0 -30 -2 -17 -4z"/>
<path d="M1980 1335 c-23 -27 2 -36 91 -32 l84 3 -87 2 c-49 1 -88 5 -88 8 0
4 8 13 18 20 9 7 12 14 6 14 -6 0 -17 -7 -24 -15z"/>
<path d="M53 1303 c9 -2 25 -2 35 0 9 3 1 5 -18 5 -19 0 -27 -2 -17 -5z"/>
<path d="M133 1303 c15 -2 37 -2 50 0 12 2 0 4 -28 4 -27 0 -38 -2 -22 -4z"/>
<path d="M273 1303 c26 -2 67 -2 90 0 23 2 2 3 -48 3 -49 0 -68 -1 -42 -3z"/>
<path d="M508 1303 c18 -2 45 -2 60 0 15 2 0 4 -33 4 -33 0 -45 -2 -27 -4z"/>
<path d="M620 1306 c0 -2 9 -6 20 -9 11 -3 18 -1 14 4 -5 9 -34 13 -34 5z"/>
<path d="M693 1303 c9 -2 25 -2 35 0 9 3 1 5 -18 5 -19 0 -27 -2 -17 -5z"/>
<path d="M773 1303 c15 -2 37 -2 50 0 12 2 0 4 -28 4 -27 0 -38 -2 -22 -4z"/>
<path d="M948 1303 c23 -2 61 -2 85 0 23 2 4 4 -43 4 -47 0 -66 -2 -42 -4z"/>
<path d="M1084 1302 c3 -6 0 -14 -7 -19 -16 -10 -67 -77 -67 -88 0 -13 24 12
58 59 22 31 29 47 21 52 -7 4 -9 3 -5 -4z"/>
<path d="M1153 1303 c26 -2 67 -2 90 0 23 2 2 3 -48 3 -49 0 -68 -1 -42 -3z"/>
<path d="M1388 1303 c23 -2 61 -2 85 0 23 2 4 4 -43 4 -47 0 -66 -2 -42 -4z"/>
<path d="M1588 1303 c23 -2 61 -2 85 0 23 2 4 4 -43 4 -47 0 -66 -2 -42 -4z"/>
<path d="M1828 1303 c23 -2 61 -2 85 0 23 2 4 4 -43 4 -47 0 -66 -2 -42 -4z"/>
<path d="M2258 1303 c23 -2 61 -2 85 0 23 2 4 4 -43 4 -47 0 -66 -2 -42 -4z"/>
<path d="M2463 1303 c26 -2 67 -2 90 0 23 2 2 3 -48 3 -49 0 -68 -1 -42 -3z"/>
<path d="M2678 1303 c12 -2 32 -2 45 0 12 2 2 4 -23 4 -25 0 -35 -2 -22 -4z"/>
<path d="M2768 1303 c12 -2 30 -2 40 0 9 3 -1 5 -23 4 -22 0 -30 -2 -17 -4z"/>
<path d="M2888 1303 c17 -2 47 -2 65 0 17 2 3 4 -33 4 -36 0 -50 -2 -32 -4z"/>
<path d="M1508 1278 c-21 -18 -61 -78 -55 -84 2 -3 21 18 41 46 38 52 40 58
14 38z"/>
<path d="M1922 1253 c-18 -20 -32 -43 -31 -52 0 -13 2 -13 12 3 7 10 23 32 36
48 34 42 21 43 -17 1z"/>
<path d="M2370 1269 c-8 -12 -23 -32 -34 -46 -10 -13 -16 -26 -13 -29 7 -7 69
74 65 86 -2 6 -10 1 -18 -11z"/>
<path d="M2791 1248 c-28 -37 -37 -58 -28 -58 8 0 69 92 64 96 -2 3 -19 -14
-36 -38z"/>
<path d="M195 1272 c-18 -12 -55 -64 -55 -76 1 -11 43 35 61 67 11 19 9 21 -6
9z"/>
<path d="M605 1245 c-14 -20 -25 -41 -22 -48 2 -7 13 4 25 23 11 19 26 41 32
48 6 6 7 12 2 12 -5 0 -22 -16 -37 -35z"/>
<path d="M50 1256 c0 -2 16 -6 35 -8 19 -2 35 0 35 4 0 4 -16 8 -35 8 -19 0
-35 -2 -35 -4z"/>
<path d="M215 1210 c-46 -63 -65 -74 -93 -54 -12 8 -22 22 -22 30 0 8 -4 14
-10 14 -5 0 -10 -5 -10 -10 0 -16 47 -60 64 -60 15 0 76 50 76 63 0 4 10 19
23 32 18 20 34 25 87 28 l65 3 -72 2 -71 2 -37 -50z"/>
<path d="M503 1253 c9 -2 23 -2 30 0 6 3 -1 5 -18 5 -16 0 -22 -2 -12 -5z"/>
<path d="M538 1235 c-30 -39 -22 -72 20 -94 29 -15 55 -7 78 25 11 14 27 35
37 46 9 12 17 25 17 29 0 5 33 10 73 12 l72 3 -75 2 -75 1 -38 -54 c-43 -63
-75 -72 -103 -30 -15 23 -15 27 1 51 21 33 16 40 -7 9z"/>
<path d="M938 1253 c6 -2 18 -2 25 0 6 3 1 5 -13 5 -14 0 -19 -2 -12 -5z"/>
<path d="M971 1236 c-8 -13 -12 -28 -10 -34 2 -5 11 6 20 24 19 38 9 47 -10
10z"/>
<path d="M1084 1206 c-44 -62 -67 -73 -95 -45 -15 15 -19 16 -19 4 0 -9 11
-21 25 -27 30 -13 75 3 75 27 0 8 4 15 9 15 5 0 19 16 32 35 23 32 28 34 89
38 l65 3 -71 2 -71 2 -39 -54z"/>
<path d="M1388 1253 c31 -4 32 -5 17 -26 -8 -12 -15 -27 -15 -35 0 -18 46 -62
65 -62 16 0 67 48 98 93 15 23 26 27 85 30 l67 3 -72 2 -71 2 -37 -50 c-46
-63 -65 -74 -93 -54 -23 16 -31 68 -12 79 22 13 8 25 -27 23 -38 -1 -38 -1 -5
-5z"/>
<path d="M1813 1253 c9 -2 23 -2 30 0 6 3 -1 5 -18 5 -16 0 -22 -2 -12 -5z"/>
<path d="M1847 1237 c-23 -29 -21 -62 5 -87 23 -21 58 -27 58 -10 0 6 -9 10
-20 10 -11 0 -27 11 -36 25 -15 23 -15 27 1 51 21 32 16 40 -8 11z"/>
<path d="M1956 1204 c-50 -72 -41 -81 10 -10 l39 54 65 4 65 4 -70 2 -70 2
-39 -56z"/>
<path d="M2248 1253 c6 -2 18 -2 25 0 6 3 1 5 -13 5 -14 0 -19 -2 -12 -5z"/>
<path d="M2287 1242 c-21 -23 -22 -62 -2 -88 8 -10 15 -14 15 -7 0 6 -4 15
-10 18 -15 9 -12 48 6 73 18 27 13 29 -9 4z"/>
<path d="M2416 1238 c-21 -29 -9 -39 14 -11 14 18 30 23 81 26 l64 3 -72 2
c-64 2 -74 0 -87 -20z"/>
<path d="M2683 1253 c9 -2 23 -2 30 0 6 3 -1 5 -18 5 -16 0 -22 -2 -12 -5z"/>
<path d="M2726 1243 c-6 -14 -5 -15 5 -6 7 7 10 15 7 18 -3 3 -9 -2 -12 -12z"/>
<path d="M2831 1205 c-24 -31 -41 -59 -38 -62 3 -2 24 21 48 52 23 30 40 58
37 61 -3 2 -24 -21 -47 -51z"/>
<path d="M2913 1253 c15 -2 37 -2 50 0 12 2 0 4 -28 4 -27 0 -38 -2 -22 -4z"/>
<path d="M2700 1200 c0 -12 11 -32 25 -45 25 -26 55 -33 55 -14 0 5 -4 8 -9 5
-5 -3 -21 4 -35 15 -19 15 -25 27 -21 40 4 11 2 19 -4 19 -6 0 -11 -9 -11 -20z"/>
<path d="M237 1150 c-26 -33 -43 -60 -37 -60 5 0 28 25 52 56 39 53 44 56 80
52 21 -2 38 0 38 4 0 5 -20 8 -43 8 -42 0 -46 -3 -90 -60z"/>
<path d="M743 1203 c15 -2 37 -2 50 0 12 2 0 4 -28 4 -27 0 -38 -2 -22 -4z"/>
<path d="M1138 1188 c-9 -13 -16 -27 -16 -31 -1 -4 -15 -19 -32 -34 -32 -26
-35 -38 -6 -27 9 3 13 10 10 15 -3 5 0 9 5 9 6 0 22 18 37 39 23 36 31 40 72
44 l47 3 -51 2 c-44 2 -54 -2 -66 -20z"/>
<path d="M1545 1150 c-25 -33 -42 -60 -37 -60 12 0 42 34 42 48 0 7 5 12 10
12 6 0 15 11 20 24 8 21 17 25 57 29 l48 3 -47 2 c-46 2 -48 1 -93 -58z"/>
<path d="M2001 1175 c-13 -19 -34 -46 -47 -60 -16 -17 -19 -25 -9 -25 8 0 31
24 52 54 35 50 41 55 83 58 l45 4 -50 2 c-47 2 -52 0 -74 -33z"/>
<path d="M2452 1198 c-7 -7 -12 -16 -12 -20 0 -10 -17 -32 -47 -60 -13 -12
-23 -26 -23 -32 0 -6 7 -3 14 6 7 10 15 16 17 14 2 -2 21 20 42 50 34 49 39
72 9 42z"/>
<path d="M2503 1203 c9 -2 25 -2 35 0 9 3 1 5 -18 5 -19 0 -27 -2 -17 -5z"/>
<path d="M2883 1183 c-10 -16 -20 -30 -23 -33 -29 -28 -51 -60 -42 -60 6 0 32
27 57 60 25 33 42 60 36 60 -6 0 -18 -12 -28 -27z"/>
<path d="M2930 1206 c0 -2 11 -6 25 -8 14 -3 25 -1 25 3 0 5 -11 9 -25 9 -14
0 -25 -2 -25 -4z"/>
<path d="M2374 1175 c-10 -15 -26 -25 -40 -25 -13 0 -24 -4 -24 -10 0 -19 38
-10 64 16 14 15 26 31 26 35 0 15 -9 10 -26 -16z"/>
<path d="M679 1158 c-12 -18 -31 -40 -42 -49 -12 -10 -16 -19 -9 -23 9 -5 29
16 85 92 6 8 6 12 -1 12 -6 0 -21 -15 -33 -32z"/>
<path d="M290 1129 c-31 -42 -20 -45 16 -3 17 18 25 34 18 34 -7 0 -22 -14
-34 -31z"/>
<path d="M727 1134 c-29 -39 -15 -45 19 -8 23 25 27 34 15 34 -9 0 -24 -12
-34 -26z"/>
<path d="M1162 1131 c-12 -17 -18 -32 -13 -35 4 -3 14 6 22 21 7 14 23 29 34
34 20 8 20 8 -1 8 -11 1 -30 -12 -42 -28z"/>
<path d="M1601 1133 c-28 -34 -17 -45 12 -11 12 14 29 28 37 31 10 4 7 6 -7 6
-12 1 -31 -11 -42 -26z"/>
<path d="M2036 1129 c-10 -17 -16 -33 -13 -35 3 -3 13 8 23 25 10 17 25 32 33
34 11 3 9 5 -4 6 -13 1 -27 -10 -39 -30z"/>
<path d="M2472 1130 c-13 -16 -18 -30 -13 -30 6 0 18 11 27 24 8 14 23 27 32
29 13 4 12 5 -4 6 -12 1 -29 -11 -42 -29z"/>
<path d="M2913 1132 c-13 -15 -23 -31 -23 -37 0 -5 9 1 19 14 10 14 27 31 37
38 13 10 14 13 3 13 -8 0 -24 -13 -36 -28z"/>
<path d="M61 1021 c-23 -23 -41 -50 -40 -59 0 -14 2 -14 6 -2 3 8 23 32 45 54
21 21 37 41 34 43 -3 3 -23 -14 -45 -36z"/>
<path d="M478 1038 c-20 -21 -50 -60 -68 -88 -3 -5 -21 -10 -40 -13 l-35 -4
40 -1 c36 -2 43 2 60 31 10 17 32 45 48 60 16 15 27 30 24 33 -3 4 -16 -5 -29
-18z"/>
<path d="M907 1032 c-15 -15 -27 -33 -27 -39 0 -6 -7 -13 -15 -17 -8 -3 -15
-12 -15 -20 0 -11 -15 -16 -57 -19 l-58 -3 56 -2 57 -2 41 55 c23 30 46 55 51
55 6 0 10 5 10 10 0 17 -15 11 -43 -18z"/>
<path d="M1363 1053 c-14 -5 -73 -89 -73 -104 0 -6 -4 -8 -9 -4 -5 3 -12 1
-16 -5 -3 -5 0 -10 7 -10 15 0 78 83 78 101 0 6 4 8 9 4 5 -3 13 0 16 6 9 13
4 18 -12 12z"/>
<path d="M1793 1043 c-11 -10 -34 -37 -52 -60 -25 -33 -39 -43 -69 -46 -35 -3
-35 -4 8 -5 43 -2 46 0 74 43 15 25 37 52 49 60 11 8 18 17 15 20 -3 3 -14 -2
-25 -12z"/>
<path d="M2217 1032 c-15 -15 -27 -32 -27 -36 0 -5 -13 -22 -30 -37 -16 -16
-24 -29 -17 -29 7 0 32 25 55 55 24 30 47 55 53 55 5 0 9 5 9 10 0 17 -15 11
-43 -18z"/>
<path d="M2659 1041 c-13 -11 -20 -20 -15 -21 6 0 1 -7 -10 -15 -10 -8 -14
-15 -8 -15 13 0 69 58 62 65 -3 3 -16 -3 -29 -14z"/>
<path d="M392 1021 c-18 -25 -30 -31 -74 -34 -53 -4 -53 -4 6 -3 54 1 61 4 84
34 13 17 20 32 15 32 -5 0 -19 -13 -31 -29z"/>
<path d="M827 1021 c-10 -16 -27 -32 -40 -34 -18 -4 -17 -5 6 -6 21 -1 30 4
34 18 3 11 11 22 19 25 8 3 14 10 14 16 0 19 -16 10 -33 -19z"/>
<path d="M1265 1020 c-14 -21 -29 -30 -55 -33 l-35 -4 39 -1 c38 -2 51 6 77
51 17 29 -5 19 -26 -13z"/>
<path d="M1702 1021 c-18 -25 -30 -31 -74 -34 l-53 -3 53 -2 c39 -2 57 3 70
16 30 29 45 52 35 52 -5 0 -19 -13 -31 -29z"/>
<path d="M2138 1020 c-7 -16 -20 -30 -28 -31 -12 0 -12 -2 -1 -6 12 -5 60 42
61 60 1 19 -20 4 -32 -23z"/>
<path d="M2574 1020 c-15 -25 -25 -30 -68 -33 l-51 -3 54 -2 c55 -2 64 3 92
51 6 11 6 17 0 17 -5 0 -18 -13 -27 -30z"/>
<path d="M220 1012 c0 -7 5 -12 11 -12 5 0 8 -3 6 -7 -3 -5 1 -21 9 -38 l14
-30 -5 35 c-5 34 -35 78 -35 52z"/>
<path d="M630 1009 c0 -8 4 -19 9 -24 5 -6 11 -21 14 -35 4 -22 4 -22 5 5 1
17 -5 39 -13 49 -11 15 -15 16 -15 5z"/>
<path d="M1060 1012 c0 -7 5 -12 10 -12 6 0 10 -16 10 -35 0 -19 5 -35 11 -35
16 0 3 60 -16 80 -10 10 -15 10 -15 2z"/>
<path d="M1500 1008 c0 -9 5 -20 10 -23 6 -3 10 -17 10 -31 0 -13 4 -24 9 -24
11 0 -4 69 -18 83 -8 8 -11 6 -11 -5z"/>
<path d="M1937 1014 c-4 -4 -2 -13 4 -20 6 -7 15 -25 20 -41 8 -25 8 -24 4 11
-4 41 -16 61 -28 50z"/>
<path d="M2370 1013 c0 -7 5 -15 10 -18 6 -3 10 -19 10 -36 0 -16 5 -29 11
-29 14 0 1 60 -17 80 -9 9 -14 10 -14 3z"/>
<path d="M2815 1005 c4 -11 10 -32 13 -47 2 -16 8 -28 12 -28 11 0 -6 70 -21
84 -9 8 -10 6 -4 -9z"/>
<path d="M109 998 c-26 -21 -91 -118 -80 -118 5 0 24 20 40 44 42 60 61 78 77
72 8 -3 14 -1 14 4 0 14 -33 12 -51 -2z"/>
<path d="M530 1000 c0 -5 11 -10 23 -10 34 0 50 -39 31 -75 -17 -33 -17 -35
-3 -35 5 0 8 4 5 9 -3 5 1 14 9 21 21 17 19 43 -6 74 -20 25 -59 36 -59 16z"/>
<path d="M949 998 c-22 -18 -69 -85 -69 -97 0 -6 -32 -12 -72 -14 l-73 -3 72
-2 72 -2 38 54 c42 61 61 71 92 49 25 -17 28 -65 6 -83 -9 -7 -13 -15 -10 -18
3 -3 12 3 20 14 44 58 -22 146 -76 102z"/>
<path d="M1389 1000 c-8 -5 -30 -31 -49 -59 l-35 -50 -75 -4 -75 -3 80 -2 80
-2 34 51 c44 63 58 71 94 52 25 -12 28 -19 24 -49 -3 -18 -1 -31 4 -28 16 10
9 64 -11 84 -21 21 -46 25 -71 10z"/>
<path d="M1806 974 c-17 -20 -43 -49 -58 -65 -18 -19 -22 -29 -12 -29 8 0 30
23 51 51 20 28 46 54 57 59 32 11 56 -9 56 -48 0 -18 4 -31 9 -28 15 10 3 60
-19 78 -32 26 -49 22 -84 -18z"/>
<path d="M2241 978 c-17 -17 -37 -44 -43 -59 -11 -26 -18 -28 -73 -32 l-60 -3
62 -2 c55 -2 64 1 74 20 6 12 22 33 35 47 13 14 24 29 24 33 0 5 11 8 25 8 14
0 25 5 25 10 0 21 -39 9 -69 -22z"/>
<path d="M2710 1000 c0 -5 8 -10 18 -10 11 0 27 -9 37 -20 15 -17 16 -24 7
-45 -6 -14 -7 -25 -2 -25 14 0 22 35 14 65 -8 32 -74 63 -74 35z"/>
<path d="M170 991 c0 -5 5 -13 10 -16 6 -3 10 -21 10 -38 1 -26 3 -29 10 -15
7 10 7 25 1 41 -10 26 -31 45 -31 28z"/>
<path d="M497 982 c-10 -10 -17 -22 -17 -26 0 -4 -11 -19 -25 -34 -22 -24 -31
-42 -21 -42 7 0 88 112 84 116 -3 2 -12 -4 -21 -14z"/>
<path d="M2325 985 c5 -11 9 -32 9 -47 1 -40 16 -34 16 6 0 19 -7 39 -17 47
-15 13 -16 12 -8 -6z"/>
<path d="M2656 951 c-20 -27 -36 -55 -36 -62 0 -7 18 12 40 41 36 49 47 70 36
70 -2 0 -20 -22 -40 -49z"/>
<path d="M718 983 c6 -2 18 -2 25 0 6 3 1 5 -13 5 -14 0 -19 -2 -12 -5z"/>
<path d="M2038 983 c12 -2 30 -2 40 0 9 3 -1 5 -23 4 -22 0 -30 -2 -17 -4z"/>
<path d="M2903 983 c15 -2 39 -2 55 0 15 2 2 4 -28 4 -30 0 -43 -2 -27 -4z"/>
<path d="M2603 960 c-4 -16 -16 -20 -77 -23 l-71 -3 71 -2 c66 -2 73 0 88 23
10 15 12 25 5 25 -6 0 -13 -9 -16 -20z"/>
<path d="M107 909 c-16 -23 -26 -43 -24 -46 5 -5 67 68 67 79 0 18 -17 5 -43
-33z"/>
<path d="M507 900 c-20 -27 -31 -47 -23 -44 16 6 71 82 64 89 -2 2 -21 -18
-41 -45z"/>
<path d="M970 935 c0 -8 -5 -15 -11 -15 -5 0 -7 -4 -4 -10 3 -5 2 -10 -3 -10
-5 0 -17 -11 -26 -25 -27 -40 6 -19 37 24 29 43 32 51 17 51 -5 0 -10 -7 -10
-15z"/>
<path d="M1382 905 c-17 -25 -27 -45 -22 -45 11 0 65 78 58 85 -2 3 -19 -15
-36 -40z"/>
<path d="M1830 921 c-12 -17 -17 -31 -12 -31 12 0 46 50 39 56 -3 3 -15 -9
-27 -25z"/>
<path d="M2264 915 c-10 -19 -22 -35 -25 -35 -4 0 -9 -7 -12 -14 -11 -27 17
-6 43 32 32 47 34 52 22 52 -5 0 -17 -16 -28 -35z"/>
<path d="M2708 928 c-8 -13 -16 -27 -18 -33 -2 -5 -10 -15 -19 -22 -10 -8 -12
-12 -4 -13 13 0 68 79 60 86 -2 3 -11 -6 -19 -18z"/>
<path d="M2930 940 l-45 -7 48 -1 c26 -1 47 3 47 8 0 6 -1 9 -2 8 -2 0 -23 -4
-48 -8z"/>
<path d="M293 933 c9 -2 23 -2 30 0 6 3 -1 5 -18 5 -16 0 -22 -2 -12 -5z"/>
<path d="M1168 933 c12 -2 32 -2 45 0 12 2 2 4 -23 4 -25 0 -35 -2 -22 -4z"/>
<path d="M2028 933 c7 -3 16 -2 19 1 4 3 -2 6 -13 5 -11 0 -14 -3 -6 -6z"/>
<path d="M170 889 c0 -5 11 -9 25 -9 14 0 25 2 25 4 0 2 -11 6 -25 8 -14 3
-25 1 -25 -3z"/>
<path d="M1590 890 c0 -6 7 -10 15 -10 8 0 15 2 15 4 0 2 -7 6 -15 10 -8 3
-15 1 -15 -4z"/>
<path d="M1880 890 c0 -5 5 -10 11 -10 5 0 7 5 4 10 -3 6 -8 10 -11 10 -2 0
-4 -4 -4 -10z"/>
<path d="M2315 890 c-3 -5 -1 -10 4 -10 6 0 11 5 11 10 0 6 -2 10 -4 10 -3 0
-8 -4 -11 -10z"/>
<path d="M2930 890 l-45 -7 48 -1 c26 -1 47 3 47 8 0 6 -1 9 -2 8 -2 0 -23 -4
-48 -8z"/>
<path d="M293 883 c9 -2 25 -2 35 0 9 3 1 5 -18 5 -19 0 -27 -2 -17 -5z"/>
<path d="M363 883 c9 -2 25 -2 35 0 9 3 1 5 -18 5 -19 0 -27 -2 -17 -5z"/>
<path d="M613 883 c9 -2 25 -2 35 0 9 3 1 5 -18 5 -19 0 -27 -2 -17 -5z"/>
<path d="M1053 883 c9 -2 23 -2 30 0 6 3 -1 5 -18 5 -16 0 -22 -2 -12 -5z"/>
<path d="M1483 883 c9 -2 25 -2 35 0 9 3 1 5 -18 5 -19 0 -27 -2 -17 -5z"/>
<path d="M1638 883 c7 -3 16 -2 19 1 4 3 -2 6 -13 5 -11 0 -14 -3 -6 -6z"/>
<path d="M1923 883 c9 -2 25 -2 35 0 9 3 1 5 -18 5 -19 0 -27 -2 -17 -5z"/>
<path d="M2468 883 c6 -2 18 -2 25 0 6 3 1 5 -13 5 -14 0 -19 -2 -12 -5z"/>
<path d="M2588 883 c7 -3 16 -2 19 1 4 3 -2 6 -13 5 -11 0 -14 -3 -6 -6z"/>
<path d="M2793 883 c9 -2 25 -2 35 0 9 3 1 5 -18 5 -19 0 -27 -2 -17 -5z"/>
<path d="M1790 865 c-7 -8 -8 -15 -2 -15 5 0 15 7 22 15 7 8 8 15 2 15 -5 0
-15 -7 -22 -15z"/>
<path d="M290 838 c0 -5 35 -7 78 -7 78 2 69 6 -26 11 -28 2 -52 0 -52 -4z"/>
<path d="M1600 838 c0 -5 35 -7 78 -7 78 2 69 6 -26 11 -28 2 -52 0 -52 -4z"/>
<path d="M1834 839 c-3 -5 9 -9 25 -9 17 0 31 2 31 4 0 8 -51 13 -56 5z"/>
<path d="M2765 840 l-60 -7 63 -1 c36 -1 62 2 62 8 0 6 -1 9 -2 8 -2 -1 -30
-4 -63 -8z"/>
<path d="M28 833 c7 -3 16 -2 19 1 4 3 -2 6 -13 5 -11 0 -14 -3 -6 -6z"/>
<path d="M98 833 c12 -2 32 -2 45 0 12 2 2 4 -23 4 -25 0 -35 -2 -22 -4z"/>
<path d="M203 833 c9 -2 25 -2 35 0 9 3 1 5 -18 5 -19 0 -27 -2 -17 -5z"/>
<path d="M528 833 c23 -2 61 -2 85 0 23 2 4 4 -43 4 -47 0 -66 -2 -42 -4z"/>
<path d="M738 833 c7 -3 16 -2 19 1 4 3 -2 6 -13 5 -11 0 -14 -3 -6 -6z"/>
<path d="M793 833 c15 -2 37 -2 50 0 12 2 0 4 -28 4 -27 0 -38 -2 -22 -4z"/>
<path d="M928 833 c7 -3 16 -2 19 1 4 3 -2 6 -13 5 -11 0 -14 -3 -6 -6z"/>
<path d="M987 833 c18 -2 50 -2 70 0 21 2 7 4 -32 4 -38 0 -55 -2 -38 -4z"/>
<path d="M1168 833 c7 -3 16 -2 19 1 4 3 -2 6 -13 5 -11 0 -14 -3 -6 -6z"/>
<path d="M1218 833 c7 -3 16 -2 19 1 4 3 -2 6 -13 5 -11 0 -14 -3 -6 -6z"/>
<path d="M1268 833 c12 -2 30 -2 40 0 9 3 -1 5 -23 4 -22 0 -30 -2 -17 -4z"/>
<path d="M1383 833 c15 -2 37 -2 50 0 12 2 0 4 -28 4 -27 0 -38 -2 -22 -4z"/>
<path d="M1473 833 c9 -2 25 -2 35 0 9 3 1 5 -18 5 -19 0 -27 -2 -17 -5z"/>
<path d="M1928 833 c6 -2 18 -2 25 0 6 3 1 5 -13 5 -14 0 -19 -2 -12 -5z"/>
<path d="M2073 833 c26 -2 67 -2 90 0 23 2 2 3 -48 3 -49 0 -68 -1 -42 -3z"/>
<path d="M2288 833 c23 -2 59 -2 80 0 20 2 1 4 -43 4 -44 0 -61 -2 -37 -4z"/>
<path d="M2508 833 c23 -2 61 -2 85 0 23 2 4 4 -43 4 -47 0 -66 -2 -42 -4z"/>
<path d="M2668 833 c6 -2 18 -2 25 0 6 3 1 5 -13 5 -14 0 -19 -2 -12 -5z"/>
<path d="M2908 833 c7 -3 16 -2 19 1 4 3 -2 6 -13 5 -11 0 -14 -3 -6 -6z"/>
<path d="M2948 833 c6 -2 18 -2 25 0 6 3 1 5 -13 5 -14 0 -19 -2 -12 -5z"/>
<path d="M40 808 c-11 -12 -20 -29 -20 -37 1 -12 3 -11 12 4 6 11 18 28 26 38
22 25 7 21 -18 -5z"/>
<path d="M889 818 c-25 -21 -71 -88 -60 -88 5 0 25 23 45 50 37 52 40 58 15
38z"/>
<path d="M432 799 c-7 -10 -8 -19 -3 -19 13 0 33 28 23 33 -4 3 -13 -3 -20
-14z"/>
<path d="M1315 810 c-3 -5 -2 -10 4 -10 5 0 13 5 16 10 3 6 2 10 -4 10 -5 0
-13 -4 -16 -10z"/>
<path d="M1750 806 c0 -8 -3 -16 -7 -18 -16 -7 -56 -58 -46 -58 18 0 75 78 63
85 -5 3 -10 0 -10 -9z"/>
<path d="M2622 805 c-7 -8 -9 -15 -4 -15 5 0 15 7 22 15 16 19 -1 19 -18 0z"/>
<path d="M2158 769 c-15 -22 -24 -39 -19 -39 13 0 54 58 49 69 -2 5 -15 -9
-30 -30z"/>
<path d="M545 789 c-33 -5 -29 -6 28 -8 37 0 67 1 67 3 0 8 -56 11 -95 5z"/>
<path d="M930 778 c-70 -84 -84 -98 -99 -98 -26 0 -54 36 -48 60 3 11 1 20 -4
20 -15 0 -10 -58 7 -74 8 -9 30 -16 48 -16 27 0 37 7 64 45 18 25 32 50 32 55
0 5 10 10 23 12 15 2 18 5 9 11 -8 5 -19 0 -32 -15z"/>
<path d="M1174 789 c-3 -5 6 -9 20 -9 31 0 34 6 6 13 -11 3 -23 1 -26 -4z"/>
<path d="M1834 792 c-22 -2 -35 -12 -49 -35 -46 -79 -91 -98 -121 -52 -15 23
-15 27 0 50 23 34 20 43 -4 12 -24 -30 -25 -45 -4 -75 10 -15 25 -22 49 -22
30 0 38 7 72 55 l38 55 69 0 c38 0 67 3 63 6 -7 8 -68 11 -113 6z"/>
<path d="M2060 790 c-9 -6 -10 -10 -3 -10 6 0 15 5 18 10 8 12 4 12 -15 0z"/>
<path d="M2262 790 c-11 -3 -38 -29 -61 -57 -52 -66 -87 -70 -110 -13 -9 23
-10 23 -10 4 -2 -39 61 -70 94 -46 16 12 65 80 65 91 0 6 32 11 73 13 70 3 70
3 20 8 -29 3 -61 3 -71 0z"/>
<path d="M2484 789 c-3 -5 6 -9 20 -9 31 0 34 6 6 13 -11 3 -23 1 -26 -4z"/>
<path d="M55 735 c-47 -68 -42 -83 6 -17 48 66 51 72 41 72 -5 0 -27 -25 -47
-55z"/>
<path d="M148 783 c18 -2 45 -2 60 0 15 2 0 4 -33 4 -33 0 -45 -2 -27 -4z"/>
<path d="M308 783 c7 -3 16 -2 19 1 4 3 -2 6 -13 5 -11 0 -14 -3 -6 -6z"/>
<path d="M351 773 c-7 -8 -11 -16 -8 -19 2 -2 10 2 17 11 17 20 9 27 -9 8z"/>
<path d="M478 763 c-52 -88 -95 -105 -128 -50 -11 17 -20 25 -20 17 0 -44 48
-71 95 -54 19 8 78 91 73 105 -2 5 -11 -3 -20 -18z"/>
<path d="M748 783 c7 -3 16 -2 19 1 4 3 -2 6 -13 5 -11 0 -14 -3 -6 -6z"/>
<path d="M1023 783 c9 -2 25 -2 35 0 9 3 1 5 -18 5 -19 0 -27 -2 -17 -5z"/>
<path d="M1221 773 c-7 -8 -11 -16 -8 -19 2 -2 10 2 17 11 17 20 9 27 -9 8z"/>
<path d="M1346 755 c-15 -19 -23 -35 -17 -35 12 0 55 59 48 66 -2 2 -16 -11
-31 -31z"/>
<path d="M1418 783 c17 -2 47 -2 65 0 17 2 3 4 -33 4 -36 0 -50 -2 -32 -4z"/>
<path d="M1618 783 c6 -2 18 -2 25 0 6 3 1 5 -13 5 -14 0 -19 -2 -12 -5z"/>
<path d="M2531 773 c-17 -18 -17 -69 0 -89 6 -8 27 -14 45 -14 29 0 39 8 75
55 23 31 39 58 36 61 -3 3 -24 -20 -46 -50 -43 -58 -67 -68 -95 -40 -19 18
-21 55 -4 72 6 6 10 14 7 16 -2 2 -10 -3 -18 -11z"/>
<path d="M2708 783 c6 -2 18 -2 25 0 6 3 1 5 -13 5 -14 0 -19 -2 -12 -5z"/>
<path d="M2768 783 c12 -2 30 -2 40 0 9 3 -1 5 -23 4 -22 0 -30 -2 -17 -4z"/>
<path d="M2918 783 c6 -2 18 -2 25 0 6 3 1 5 -13 5 -14 0 -19 -2 -12 -5z"/>
<path d="M1282 760 c-24 -22 -27 -30 -13 -30 5 0 16 11 25 25 20 30 17 32 -12
5z"/>
<path d="M2086 765 c-3 -8 -1 -15 4 -15 6 0 10 7 10 15 0 8 -2 15 -4 15 -2 0
-6 -7 -10 -15z"/>
<path d="M2602 773 c-14 -6 -36 -43 -25 -43 4 0 16 12 26 25 10 14 17 25 15
24 -2 0 -9 -3 -16 -6z"/>
<path d="M402 758 c-7 -7 -12 -16 -12 -20 0 -15 15 -8 28 12 13 22 3 27 -16 8z"/>
<path d="M2944 745 c-4 -16 0 -35 11 -51 22 -33 30 -25 11 11 -11 20 -12 34
-5 47 6 12 6 18 0 18 -6 0 -13 -11 -17 -25z"/>
<path d="M2750 742 c-39 -3 -49 -9 -72 -43 -16 -22 -28 -43 -28 -49 0 -5 -8
-14 -17 -19 -10 -6 -13 -11 -7 -11 7 0 30 25 53 55 38 50 45 55 81 55 22 0 40
5 40 10 0 6 -1 9 -2 8 -2 -1 -23 -3 -48 -6z"/>
<path d="M99 708 c-12 -18 -34 -45 -47 -60 -14 -16 -21 -28 -16 -28 12 0 55
45 78 82 12 18 28 28 49 31 31 4 31 4 -5 5 -31 2 -40 -3 -59 -30z"/>
<path d="M521 724 c0 -11 3 -14 6 -6 3 7 2 16 -1 19 -3 4 -6 -2 -5 -13z"/>
<path d="M573 733 c9 -2 25 -2 35 0 9 3 1 5 -18 5 -19 0 -27 -2 -17 -5z"/>
<path d="M955 730 c-3 -5 -1 -10 4 -10 6 0 11 5 11 10 0 6 -2 10 -4 10 -3 0
-8 -4 -11 -10z"/>
<path d="M998 733 c12 -2 32 -2 45 0 12 2 2 4 -23 4 -25 0 -35 -2 -22 -4z"/>
<path d="M1206 720 c15 -56 60 -71 102 -34 15 13 22 24 16 24 -6 0 -17 -7 -24
-15 -21 -26 -56 -18 -80 18 -18 28 -20 29 -14 7z"/>
<path d="M1370 698 c-16 -24 -37 -51 -46 -60 -10 -10 -13 -18 -7 -18 12 0 66
65 76 92 3 9 16 18 29 21 l23 4 -22 2 c-16 1 -32 -11 -53 -41z"/>
<path d="M1458 733 c6 -2 18 -2 25 0 6 3 1 5 -13 5 -14 0 -19 -2 -12 -5z"/>
<path d="M1812 708 c-12 -19 -34 -47 -48 -62 -19 -19 -22 -26 -11 -26 18 0 90
96 84 113 -2 6 -13 -5 -25 -25z"/>
<path d="M1868 733 c12 -2 32 -2 45 0 12 2 2 4 -23 4 -25 0 -35 -2 -22 -4z"/>
<path d="M2262 728 c-7 -7 -12 -17 -12 -24 0 -7 -3 -14 -7 -16 -17 -8 -66 -68
-55 -68 6 0 30 24 53 53 37 46 47 53 88 58 l46 6 -50 1 c-29 1 -56 -3 -63 -10z"/>
<path d="M494 695 c-4 -11 -21 -32 -37 -47 -21 -19 -26 -28 -15 -28 19 0 71
66 65 83 -3 7 -8 4 -13 -8z"/>
<path d="M905 664 c-21 -26 -32 -45 -25 -42 17 5 86 88 73 88 -5 0 -26 -21
-48 -46z"/>
<path d="M2729 670 c-17 -17 -28 -34 -25 -38 4 -3 17 6 29 20 12 14 29 28 37
30 10 3 11 6 2 12 -7 4 -25 -5 -43 -24z"/>
<path d="M158 683 c6 -2 18 -2 25 0 6 3 1 5 -13 5 -14 0 -19 -2 -12 -5z"/>
<path d="M542 667 c-23 -24 -28 -37 -14 -37 5 0 15 11 22 25 7 13 20 26 29 28
14 4 14 5 0 6 -8 0 -25 -9 -37 -22z"/>
<path d="M975 664 c-22 -33 -13 -42 12 -11 10 13 25 26 33 30 10 4 8 6 -6 6
-13 1 -29 -10 -39 -25z"/>
<path d="M1411 663 c-31 -38 -17 -41 18 -4 17 18 23 31 16 31 -8 0 -23 -12
-34 -27z"/>
<path d="M1848 665 c-20 -26 -22 -35 -10 -35 5 0 15 11 22 25 7 13 20 26 29
28 12 3 10 5 -4 6 -11 0 -28 -10 -37 -24z"/>
<path d="M2296 681 c-3 -4 6 -6 19 -3 14 2 25 6 25 8 0 8 -39 4 -44 -5z"/>
<path d="M131 653 c-7 -8 -11 -16 -8 -19 2 -2 10 2 17 11 17 20 9 27 -9 8z"/>
<path d="M2270 645 c-7 -8 -8 -15 -2 -15 5 0 15 7 22 15 7 8 8 15 2 15 -5 0
-15 -7 -22 -15z"/>
<path d="M221 578 c-17 -17 -31 -38 -31 -45 0 -7 -4 -13 -9 -13 -5 0 -12 -7
-15 -16 -12 -32 1 -24 33 21 17 24 39 51 48 60 8 9 13 18 11 21 -3 2 -19 -10
-37 -28z"/>
<path d="M147 571 c-9 -16 -17 -33 -17 -38 0 -10 49 49 50 60 0 17 -17 5 -33
-22z"/>
<path d="M582 571 c-20 -27 -28 -31 -73 -31 -28 0 -48 -3 -46 -7 3 -5 29 -6
59 -5 42 3 57 9 71 28 10 14 17 29 15 35 -2 6 -14 -4 -26 -20z"/>
<path d="M680 589 c0 -5 -3 -8 -7 -6 -5 3 -16 -6 -26 -19 -10 -13 -14 -24 -10
-24 13 1 67 60 55 60 -7 0 -12 -5 -12 -11z"/>
<path d="M1020 573 c-12 -15 -34 -31 -48 -34 -27 -7 -26 -7 4 -8 17 0 37 6 44
14 7 8 9 15 4 15 -4 0 1 6 12 14 10 8 16 17 13 21 -4 3 -17 -7 -29 -22z"/>
<path d="M1066 540 c-25 -33 -42 -60 -37 -60 5 0 26 22 46 50 20 27 44 54 53
60 16 9 16 9 0 10 -9 0 -37 -27 -62 -60z"/>
<path d="M1455 574 c-24 -37 -13 -50 13 -15 12 16 18 32 13 35 -5 3 -16 -6
-26 -20z"/>
<path d="M1550 589 c0 -5 -4 -8 -8 -5 -8 5 -78 -91 -71 -98 2 -3 25 22 51 55
26 32 43 59 38 59 -6 0 -10 -5 -10 -11z"/>
<path d="M1894 571 c-11 -18 -27 -31 -39 -31 -15 0 -17 -2 -6 -9 8 -5 19 -7
26 -5 14 6 49 64 42 70 -3 3 -13 -8 -23 -25z"/>
<path d="M1963 574 c-59 -83 -60 -84 -131 -84 -40 0 -61 -4 -52 -9 8 -4 44 -5
80 -1 36 4 62 8 58 8 -6 2 26 43 69 89 15 16 18 23 8 23 -8 0 -22 -12 -32 -26z"/>
<path d="M2338 583 c-15 -18 -31 -53 -23 -53 2 0 13 14 25 31 24 33 22 50 -2
22z"/>
<path d="M2403 578 c-11 -13 -30 -38 -42 -55 -19 -28 -28 -33 -64 -33 -24 0
-37 -4 -30 -8 7 -4 29 -6 48 -4 28 3 42 14 71 53 20 27 43 53 52 59 15 8 15 9
1 10 -8 0 -25 -10 -36 -22z"/>
<path d="M2768 575 c-22 -30 -24 -58 -2 -30 24 31 36 55 27 55 -4 0 -16 -11
-25 -25z"/>
<path d="M2838 573 c-32 -36 -58 -75 -58 -88 0 -11 39 36 40 48 0 4 15 21 33
37 17 16 27 30 21 30 -5 0 -22 -12 -36 -27z"/>
<path d="M380 553 c0 -5 4 -13 9 -18 5 -6 11 -23 14 -40 4 -28 4 -28 6 6 0 22
-5 42 -14 49 -8 7 -15 8 -15 3z"/>
<path d="M820 545 c7 -8 16 -30 20 -48 8 -32 8 -32 9 -4 1 32 -15 67 -31 67
-7 0 -6 -5 2 -15z"/>
<path d="M1256 545 c4 -8 10 -15 15 -15 4 0 6 7 3 15 -4 8 -10 15 -15 15 -4 0
-6 -7 -3 -15z"/>
<path d="M1694 545 c5 -11 12 -33 16 -50 l8 -30 1 36 c1 23 -5 42 -16 50 -15
12 -16 12 -9 -6z"/>
<path d="M2139 514 c9 -25 17 -38 19 -29 4 19 -17 75 -28 75 -4 0 0 -21 9 -46z"/>
<path d="M2440 534 c-16 -14 -30 -32 -30 -40 0 -8 -3 -14 -8 -14 -10 0 -35
-41 -28 -47 2 -3 17 15 33 39 38 58 48 68 71 68 22 0 52 -30 52 -51 0 -8 -7
-25 -16 -37 -14 -20 -14 -22 1 -22 9 0 14 4 10 9 -3 5 -1 12 5 16 16 10 11 61
-7 77 -33 28 -51 28 -83 2z"/>
<path d="M2560 551 c0 -6 5 -13 10 -16 6 -3 10 -17 10 -31 0 -13 5 -24 10 -24
13 0 13 10 -1 49 -10 29 -29 43 -29 22z"/>
<path d="M293 543 c31 -5 60 -42 51 -67 -3 -9 -1 -16 5 -16 16 0 13 42 -5 68
-11 16 -24 22 -47 21 -31 -2 -31 -2 -4 -6z"/>
<path d="M660 496 l-42 -55 -76 -4 -77 -3 89 -2 c49 -1 87 0 84 3 -3 3 8 20
24 37 16 17 26 33 24 36 -10 9 23 32 48 32 28 0 46 -24 46 -62 1 -20 2 -21 11
-5 7 12 6 25 -3 45 -10 21 -21 28 -50 30 -34 3 -39 -1 -78 -52z"/>
<path d="M1123 528 c-11 -13 -30 -37 -42 -55 -21 -31 -25 -32 -99 -36 l-77 -3
82 -2 81 -2 37 50 c20 27 44 54 53 60 15 8 15 9 1 10 -8 0 -25 -10 -36 -22z"/>
<path d="M1200 525 c22 -23 22 -33 5 -80 -8 -20 -8 -20 8 0 22 28 21 67 -3 88
-30 25 -37 21 -10 -8z"/>
<path d="M1554 523 c-13 -14 -22 -28 -19 -31 7 -7 36 19 30 28 -3 4 2 11 11
14 46 18 78 -5 76 -55 0 -16 4 -27 9 -24 14 9 11 48 -7 73 -22 31 -68 29 -100
-5z"/>
<path d="M1997 532 c-10 -10 -17 -22 -17 -25 0 -4 -12 -20 -26 -37 -24 -27
-33 -29 -103 -33 l-76 -3 82 -2 82 -2 41 55 c30 40 47 55 65 55 28 0 37 -12
45 -60 5 -28 7 -31 12 -14 3 12 -1 35 -8 53 -11 26 -18 31 -47 31 -20 0 -41
-7 -50 -18z"/>
<path d="M2876 541 c-4 -5 10 -7 31 -4 35 4 39 2 51 -26 12 -27 12 -35 -2 -56
-21 -31 -20 -34 5 -28 14 4 17 8 9 13 -9 5 -9 9 -1 14 16 10 14 48 -5 74 -16
23 -77 32 -88 13z"/>
<path d="M58 533 c6 -2 18 -2 25 0 6 3 1 5 -13 5 -14 0 -19 -2 -12 -5z"/>
<path d="M221 490 l-34 -49 -81 -4 -81 -3 88 -2 c81 -2 89 0 94 18 3 11 8 20
12 20 12 0 51 59 43 64 -4 2 -23 -17 -41 -44z"/>
<path d="M900 530 c0 -5 5 -10 11 -10 5 0 7 5 4 10 -3 6 -8 10 -11 10 -2 0 -4
-4 -4 -10z"/>
<path d="M1343 533 c9 -2 23 -2 30 0 6 3 -1 5 -18 5 -16 0 -22 -2 -12 -5z"/>
<path d="M1398 533 c6 -2 18 -2 25 0 6 3 1 5 -13 5 -14 0 -19 -2 -12 -5z"/>
<path d="M1798 533 c7 -3 16 -2 19 1 4 3 -2 6 -13 5 -11 0 -14 -3 -6 -6z"/>
<path d="M2210 529 c0 -5 5 -7 10 -4 6 3 10 8 10 11 0 2 -4 4 -10 4 -5 0 -10
-5 -10 -11z"/>
<path d="M2240 536 c0 -2 13 -6 29 -8 17 -2 28 -1 25 4 -5 8 -54 12 -54 4z"/>
<path d="M2653 534 c9 -9 87 -11 87 -2 0 4 -21 8 -47 8 -25 0 -44 -3 -40 -6z"/>
<path d="M608 511 c-11 -18 -23 -21 -83 -22 -62 -1 -65 -2 -30 -9 56 -11 109
-1 124 22 7 11 10 22 7 25 -2 3 -11 -4 -18 -16z"/>
<path d="M1270 513 c0 -4 5 -15 10 -23 8 -13 10 -13 10 2 0 9 -4 20 -10 23 -5
3 -10 3 -10 -2z"/>
<path d="M2840 489 c-14 -18 -27 -35 -30 -40 -3 -4 -41 -10 -85 -12 l-80 -3
86 -2 85 -2 32 45 c36 51 30 61 -8 14z"/>
<path d="M701 454 c-18 -25 -31 -47 -28 -50 5 -6 67 75 67 88 0 14 -6 9 -39
-38z"/>
<path d="M1567 442 l-39 -57 41 44 c23 24 41 50 41 57 0 8 -1 14 -2 14 -2 0
-20 -26 -41 -58z"/>
<path d="M2883 455 c-43 -58 -42 -70 2 -20 19 22 35 46 35 53 0 17 -1 16 -37
-33z"/>
<path d="M48 483 c12 -2 32 -2 45 0 12 2 2 4 -23 4 -25 0 -35 -2 -22 -4z"/>
<path d="M128 483 c7 -3 16 -2 19 1 4 3 -2 6 -13 5 -11 0 -14 -3 -6 -6z"/>
<path d="M268 458 c-38 -50 -45 -66 -22 -46 19 17 59 78 51 78 -3 0 -16 -15
-29 -32z"/>
<path d="M908 483 c6 -2 18 -2 25 0 6 3 1 5 -13 5 -14 0 -19 -2 -12 -5z"/>
<path d="M958 483 c7 -3 16 -2 19 1 4 3 -2 6 -13 5 -11 0 -14 -3 -6 -6z"/>
<path d="M1130 445 c-17 -24 -25 -42 -18 -40 18 8 72 85 59 85 -5 0 -24 -20
-41 -45z"/>
<path d="M1413 483 c9 -2 25 -2 35 0 9 3 1 5 -18 5 -19 0 -27 -2 -17 -5z"/>
<path d="M2010 452 c-14 -20 -29 -40 -35 -44 -6 -5 -6 -8 1 -8 7 0 23 15 36
33 34 44 41 57 31 57 -4 0 -19 -17 -33 -38z"/>
<path d="M2449 457 c-34 -43 -42 -57 -32 -57 4 0 19 17 33 38 14 20 29 40 35
44 7 5 7 8 0 8 -5 0 -22 -15 -36 -33z"/>
<path d="M2690 486 c0 -9 40 -13 46 -5 3 5 -6 9 -20 9 -14 0 -26 -2 -26 -4z"/>
<path d="M1510 460 c-9 -16 -23 -20 -93 -23 l-82 -3 86 -2 c82 -2 88 -1 103
23 9 14 12 25 7 25 -6 0 -15 -9 -21 -20z"/>
<path d="M760 435 c0 -8 2 -15 4 -15 2 0 6 7 10 15 3 8 1 15 -4 15 -6 0 -10
-7 -10 -15z"/>
<path d="M350 436 c0 -2 14 -6 30 -8 17 -3 30 -1 30 4 0 4 -13 8 -30 8 -16 0
-30 -2 -30 -4z"/>
<path d="M803 433 c9 -2 25 -2 35 0 9 3 1 5 -18 5 -19 0 -27 -2 -17 -5z"/>
<path d="M1230 436 c0 -2 11 -6 25 -8 14 -3 25 -1 25 3 0 5 -11 9 -25 9 -14 0
-25 -2 -25 -4z"/>
<path d="M1630 430 c0 -5 7 -7 15 -4 8 4 15 8 15 10 0 2 -7 4 -15 4 -8 0 -15
-4 -15 -10z"/>
<path d="M1683 433 c9 -2 23 -2 30 0 6 3 -1 5 -18 5 -16 0 -22 -2 -12 -5z"/>
<path d="M2093 433 c15 -2 37 -2 50 0 12 2 0 4 -28 4 -27 0 -38 -2 -22 -4z"/>
<path d="M2253 433 c20 -2 54 -2 75 0 20 2 3 4 -38 4 -41 0 -58 -2 -37 -4z"/>
<path d="M2553 433 c9 -2 23 -2 30 0 6 3 -1 5 -18 5 -16 0 -22 -2 -12 -5z"/>
<path d="M77 383 c24 -2 62 -2 85 0 24 2 5 4 -42 4 -47 0 -66 -2 -43 -4z"/>
<path d="M273 383 c26 -2 67 -2 90 0 23 2 2 3 -48 3 -49 0 -68 -1 -42 -3z"/>
<path d="M480 382 c0 -5 14 -7 30 -4 17 2 30 6 30 8 0 2 -13 4 -30 4 -16 0
-30 -4 -30 -8z"/>
<path d="M568 383 c12 -2 32 -2 45 0 12 2 2 4 -23 4 -25 0 -35 -2 -22 -4z"/>
<path d="M718 383 c23 -2 61 -2 85 0 23 2 4 4 -43 4 -47 0 -66 -2 -42 -4z"/>
<path d="M943 383 c20 -2 54 -2 75 0 20 2 3 4 -38 4 -41 0 -58 -2 -37 -4z"/>
<path d="M1158 383 c23 -2 61 -2 85 0 23 2 4 4 -43 4 -47 0 -66 -2 -42 -4z"/>
<path d="M1368 383 c12 -2 32 -2 45 0 12 2 2 4 -23 4 -25 0 -35 -2 -22 -4z"/>
<path d="M1598 383 c23 -2 59 -2 80 0 20 2 1 4 -43 4 -44 0 -61 -2 -37 -4z"/>
<path d="M1833 383 c26 -2 67 -2 90 0 23 2 2 3 -48 3 -49 0 -68 -1 -42 -3z"/>
<path d="M2023 383 c26 -2 67 -2 90 0 23 2 2 3 -48 3 -49 0 -68 -1 -42 -3z"/>
<path d="M2258 383 c23 -2 61 -2 85 0 23 2 4 4 -43 4 -47 0 -66 -2 -42 -4z"/>
<path d="M2443 383 c15 -2 37 -2 50 0 12 2 0 4 -28 4 -27 0 -38 -2 -22 -4z"/>
<path d="M2538 383 c12 -2 30 -2 40 0 9 3 -1 5 -23 4 -22 0 -30 -2 -17 -4z"/>
<path d="M2687 383 c18 -2 50 -2 70 0 21 2 7 4 -32 4 -38 0 -55 -2 -38 -4z"/>
<path d="M2888 383 c17 -2 47 -2 65 0 17 2 3 4 -33 4 -36 0 -50 -2 -32 -4z"/>
<path d="M204 362 c-14 -9 -64 -77 -64 -86 0 -14 20 6 50 50 31 45 33 49 14
36z"/>
<path d="M1044 325 c-20 -25 -34 -48 -30 -52 3 -3 7 -4 9 -2 2 2 14 20 28 39
54 74 50 84 -7 15z"/>
<path d="M1508 358 c-17 -14 -58 -72 -58 -83 0 -12 16 4 48 49 34 48 37 55 10
34z"/>
<path d="M2818 358 c-23 -19 -61 -78 -54 -85 3 -3 11 6 17 21 7 14 15 26 19
26 4 0 15 11 24 25 18 28 17 31 -6 13z"/>
<path d="M622 348 c-7 -7 -12 -17 -12 -24 0 -6 -7 -14 -15 -18 -8 -3 -15 -13
-15 -23 0 -14 6 -11 25 12 13 17 24 35 25 42 0 6 6 14 13 16 6 3 7 6 2 6 -6 1
-16 -4 -23 -11z"/>
<path d="M1932 348 c-7 -7 -12 -17 -12 -24 0 -6 -7 -14 -15 -18 -8 -3 -15 -13
-15 -23 1 -14 5 -12 21 9 11 15 20 30 19 34 -1 3 7 12 17 20 10 7 13 14 8 14
-6 0 -16 -5 -23 -12z"/>
<path d="M2347 320 c-29 -40 -32 -50 -19 -50 5 0 15 12 23 28 8 15 20 32 28
38 8 6 10 13 5 17 -5 3 -21 -12 -37 -33z"/>
<path d="M72 333 c23 -4 26 -8 24 -36 -2 -18 -1 -23 1 -12 3 11 9 24 14 30 16
16 10 21 -28 22 -25 0 -29 -1 -11 -4z"/>
<path d="M220 295 c-17 -24 -40 -51 -52 -59 -20 -14 -24 -14 -46 0 -13 9 -26
13 -29 11 -2 -3 7 -13 21 -22 27 -18 82 -13 71 5 -3 6 -2 10 4 10 5 0 24 20
41 45 30 44 31 44 98 48 l67 3 -72 2 -72 2 -31 -45z"/>
<path d="M518 333 c29 -4 31 -6 16 -20 -19 -20 -12 -70 14 -89 30 -23 36 -15
8 12 -30 31 -32 42 -11 70 22 29 18 34 -22 32 -38 -1 -38 -1 -5 -5z"/>
<path d="M659 298 c-17 -24 -41 -51 -52 -61 -11 -10 -16 -21 -12 -25 8 -8 82
73 91 100 4 14 20 18 77 21 l72 3 -72 2 -71 2 -33 -42z"/>
<path d="M946 333 c19 -4 21 -9 17 -42 -4 -30 -1 -43 16 -60 24 -24 50 -27 72
-8 25 20 81 97 72 98 -4 1 10 5 32 9 l40 7 -36 2 c-33 1 -39 -4 -73 -53 -43
-63 -73 -76 -99 -44 -20 24 -17 76 6 90 7 4 -5 7 -28 6 -22 0 -30 -3 -19 -5z"/>
<path d="M1213 333 c9 -2 25 -2 35 0 9 3 1 5 -18 5 -19 0 -27 -2 -17 -5z"/>
<path d="M1360 336 c0 -2 16 -6 35 -8 19 -2 35 0 35 4 0 4 -16 8 -35 8 -19 0
-35 -2 -35 -4z"/>
<path d="M1527 290 c-20 -27 -45 -54 -55 -59 -29 -15 -62 13 -62 52 -1 27 -2
29 -11 14 -12 -20 6 -64 32 -80 21 -13 69 -1 69 18 0 8 4 15 9 15 4 0 21 18
36 40 26 38 29 39 94 43 l66 3 -70 2 -71 2 -37 -50z"/>
<path d="M1828 333 c29 -4 31 -6 17 -19 -17 -18 -20 -64 -4 -64 5 0 7 -4 4
-10 -3 -5 5 -15 19 -22 37 -16 69 1 108 61 l33 50 65 4 65 3 -70 2 -71 2 -34
-54 c-19 -30 -42 -56 -50 -58 -27 -7 -47 3 -59 29 -9 21 -9 30 4 49 21 32 20
34 -22 32 -38 -1 -38 -1 -5 -5z"/>
<path d="M2240 336 c0 -8 61 -12 66 -4 3 4 -11 8 -30 8 -20 0 -36 -2 -36 -4z"/>
<path d="M2402 296 c-18 -24 -32 -49 -32 -56 0 -6 -4 -9 -9 -5 -5 3 -13 0 -16
-6 -4 -5 -13 -8 -21 -5 -8 3 -14 1 -14 -4 0 -6 9 -10 20 -10 22 0 53 28 91 85
22 32 28 34 89 38 l65 3 -71 2 -71 2 -31 -44z"/>
<path d="M2698 333 c32 -4 33 -5 17 -23 -9 -10 -15 -27 -12 -37 4 -15 5 -15 6
3 0 12 8 27 16 34 25 21 17 30 -22 28 l-38 -1 33 -4z"/>
<path d="M2850 310 c-12 -16 -16 -30 -10 -30 6 0 15 11 22 25 9 21 19 25 67
28 l56 3 -57 2 c-53 2 -58 0 -78 -28z"/>
<path d="M2270 276 c0 -18 7 -39 15 -46 9 -8 15 -9 15 -2 0 6 -5 14 -11 18 -6
3 -9 19 -7 35 3 16 1 29 -4 29 -4 0 -8 -15 -8 -34z"/>
<path d="M272 278 c-7 -7 -12 -15 -12 -19 0 -5 -16 -25 -35 -46 -19 -21 -35
-42 -35 -47 0 -14 40 25 71 71 25 36 35 42 72 46 l42 4 -45 1 c-26 1 -51 -3
-58 -10z"/>
<path d="M683 245 c-18 -24 -33 -49 -33 -54 0 -5 -8 -12 -17 -14 -15 -4 -15
-5 -2 -6 15 -1 89 82 89 100 0 4 21 10 48 12 l47 3 -50 2 c-48 1 -51 0 -82
-43z"/>
<path d="M1121 245 c-18 -25 -28 -45 -23 -45 12 0 66 69 55 72 -4 1 17 4 47 8
l55 7 -51 1 c-49 2 -51 1 -83 -43z"/>
<path d="M1571 259 c-17 -17 -31 -35 -31 -41 0 -5 -10 -18 -22 -28 -13 -10
-20 -21 -16 -25 4 -4 28 20 53 54 42 54 52 60 89 64 l41 4 -42 1 c-34 2 -47
-3 -72 -29z"/>
<path d="M2012 270 c-7 -11 -8 -20 -3 -20 6 0 14 6 18 14 4 8 28 16 53 19 l45
4 -50 1 c-41 2 -53 -2 -63 -18z"/>
<path d="M2417 229 c-45 -57 -56 -77 -31 -61 6 4 27 30 48 57 32 42 44 51 79
56 l42 6 -45 1 c-44 2 -46 0 -93 -59z"/>
<path d="M2873 253 c-38 -49 -46 -63 -36 -63 5 0 23 20 40 44 26 37 38 45 70
49 l38 4 -42 1 c-37 2 -44 -2 -70 -35z"/>
<path d="M2798 243 c-26 -26 -27 -26 -53 -9 -15 10 -29 15 -33 12 -9 -10 11
-25 43 -32 24 -4 35 0 54 20 33 35 22 43 -11 9z"/>
<path d="M290 210 c-12 -16 -18 -30 -13 -30 5 0 20 14 35 30 16 19 21 30 13
30 -8 0 -23 -13 -35 -30z"/>
<path d="M726 209 c-25 -42 -17 -43 20 -3 23 26 27 34 15 34 -9 0 -25 -14 -35
-31z"/>
<path d="M1162 210 c-12 -16 -19 -31 -14 -34 4 -2 17 8 27 24 11 16 27 31 35
34 9 2 8 4 -5 4 -11 1 -30 -12 -43 -28z"/>
<path d="M1600 209 c-31 -42 -20 -45 16 -3 17 18 25 34 18 34 -7 0 -22 -14
-34 -31z"/>
<path d="M1964 205 c-17 -19 -26 -35 -19 -35 7 0 25 16 39 35 35 45 20 45 -20
0z"/>
<path d="M2037 214 c-10 -13 -17 -30 -15 -36 3 -7 13 2 23 20 10 17 26 33 34
35 11 3 10 5 -4 6 -11 0 -28 -11 -38 -25z"/>
<path d="M2472 211 c-12 -17 -18 -32 -13 -35 4 -3 14 6 22 21 7 14 23 29 34
34 20 8 20 8 -1 8 -11 1 -30 -12 -42 -28z"/>
<path d="M2911 211 c-25 -34 -27 -49 -6 -31 8 7 15 18 15 25 0 8 12 18 28 23
24 9 24 11 5 11 -13 1 -30 -10 -42 -28z"/>
<path d="M1065 179 c-11 -17 0 -20 21 -4 17 13 17 14 2 15 -9 0 -20 -5 -23
-11z"/>
<path d="M2810 169 c0 -5 5 -7 10 -4 6 3 10 8 10 11 0 2 -4 4 -10 4 -5 0 -10
-5 -10 -11z"/>
<path d="M60 101 c-22 -23 -40 -49 -40 -58 0 -9 15 4 35 30 19 25 40 47 47 50
7 2 10 8 6 12 -5 5 -26 -11 -48 -34z"/>
<path d="M470 110 c-17 -18 -38 -45 -47 -61 -9 -15 -26 -30 -37 -32 -17 -4
-16 -5 4 -6 19 -1 31 7 43 29 10 16 31 43 48 60 18 17 29 34 26 37 -4 3 -20
-9 -37 -27z"/>
<path d="M906 108 c-15 -18 -31 -38 -36 -45 -6 -7 -10 -16 -10 -20 0 -4 20 14
45 41 25 27 45 51 45 53 0 13 -22 -2 -44 -29z"/>
<path d="M1348 116 c-23 -21 -64 -86 -55 -86 2 0 23 23 47 51 45 54 50 75 8
35z"/>
<path d="M1803 133 c-16 -6 -87 -102 -80 -109 2 -3 21 17 41 45 20 27 42 52
49 54 7 2 10 7 7 9 -3 3 -10 3 -17 1z"/>
<path d="M392 100 c-9 -16 -24 -31 -32 -33 -8 -2 -7 -4 4 -3 20 1 76 66 57 66
-7 0 -20 -13 -29 -30z"/>
<path d="M837 112 c-10 -10 -17 -24 -17 -30 0 -6 -24 -12 -57 -15 l-58 -3 57
-2 c53 -2 58 0 78 29 25 34 22 49 -3 21z"/>
<path d="M1265 100 c-16 -24 -27 -30 -70 -33 -47 -4 -46 -4 8 -3 54 1 59 3 78
34 26 40 11 43 -16 2z"/>
<path d="M1704 100 c-16 -25 -25 -30 -71 -33 l-53 -4 56 1 c52 1 59 4 82 34
13 17 20 32 14 32 -6 0 -19 -13 -28 -30z"/>
<path d="M2139 100 c-8 -16 -20 -31 -29 -34 -12 -3 -12 -4 2 -5 14 -1 58 46
58 63 0 17 -20 2 -31 -24z"/>
<path d="M2195 84 c-19 -26 -35 -51 -35 -57 0 -5 16 11 35 36 19 25 43 51 53
56 16 10 16 10 0 11 -9 0 -33 -21 -53 -46z"/>
<path d="M2576 103 c-12 -16 -14 -24 -6 -21 16 5 46 48 34 48 -5 0 -18 -12
-28 -27z"/>
<path d="M2661 118 c-6 -7 -24 -30 -42 -50 -17 -21 -28 -43 -26 -50 4 -10 6
-10 6 0 1 6 9 20 19 31 57 61 73 81 63 81 -6 0 -15 -6 -20 -12z"/>
<path d="M1060 93 c0 -7 5 -15 10 -18 6 -3 10 -19 10 -36 0 -16 5 -29 10 -29
14 0 2 62 -16 80 -9 9 -14 10 -14 3z"/>
<path d="M1937 94 c-4 -4 -2 -13 4 -20 6 -7 15 -25 20 -41 8 -25 8 -24 4 11
-4 41 -16 61 -28 50z"/>
<path d="M2370 96 c0 -2 6 -16 14 -31 8 -15 12 -34 9 -41 -3 -8 0 -14 6 -14
15 0 14 14 -3 55 -13 29 -26 46 -26 31z"/>
<path d="M98 60 c-18 -16 -28 -30 -21 -30 6 0 18 9 26 21 24 34 69 22 84 -21
l12 -35 -2 33 c-1 26 -8 37 -29 48 -35 18 -32 19 -70 -16z"/>
<path d="M229 73 c5 -10 14 -29 19 -43 7 -17 11 -19 11 -8 1 25 -17 68 -29 68
-6 0 -7 -6 -1 -17z"/>
<path d="M530 86 c0 -2 7 -6 15 -10 8 -3 15 -1 15 4 0 6 -7 10 -15 10 -8 0
-15 -2 -15 -4z"/>
<path d="M630 81 c0 -6 5 -13 10 -16 6 -3 10 -18 10 -32 0 -15 3 -24 6 -20 9
9 -5 77 -16 77 -6 0 -10 -4 -10 -9z"/>
<path d="M940 60 c-17 -17 -30 -36 -30 -43 0 -6 10 3 23 20 20 29 35 38 60 34
4 0 7 4 7 9 0 20 -31 9 -60 -20z"/>
<path d="M1400 80 c0 -5 6 -7 14 -4 8 3 17 0 21 -5 3 -6 10 -9 15 -6 4 3 11
-7 14 -21 4 -15 9 -24 12 -22 8 9 -16 59 -25 53 -5 -3 -12 -1 -16 5 -8 13 -35
13 -35 0z"/>
<path d="M1506 78 c4 -6 10 -25 13 -42 4 -17 9 -26 12 -21 8 14 -10 75 -22 75
-6 0 -7 -5 -3 -12z"/>
<path d="M1813 65 c-15 -13 -23 -25 -17 -25 6 0 17 7 24 15 15 18 51 20 68 3
7 -7 12 -23 12 -36 0 -13 4 -20 10 -17 17 10 11 35 -15 60 -30 31 -47 31 -82
0z"/>
<path d="M2251 63 c-17 -15 -31 -34 -30 -43 0 -12 2 -12 6 -1 10 24 43 51 63
51 11 0 20 5 20 10 0 18 -28 10 -59 -17z"/>
<path d="M2692 74 c-12 -8 -22 -22 -22 -30 0 -8 -5 -14 -12 -14 -6 0 -8 -3 -5
-6 4 -4 20 8 36 25 17 18 35 30 41 26 5 -3 10 -1 10 4 0 16 -22 13 -48 -5z"/>
<path d="M2816 78 c4 -6 10 -25 13 -42 4 -17 9 -26 12 -21 8 14 -10 75 -22 75
-6 0 -7 -5 -3 -12z"/>
<path d="M487 47 c-28 -33 -38 -59 -12 -33 8 8 15 18 15 22 0 4 8 13 17 20 10
7 16 15 13 18 -3 2 -18 -9 -33 -27z"/>
<path d="M570 77 c0 -4 7 -19 16 -32 9 -13 12 -30 8 -36 -4 -8 -3 -9 4 -5 7 4
12 13 12 20 0 15 -39 67 -40 53z"/>
<path d="M1010 70 c0 -5 5 -10 11 -10 5 0 7 5 4 10 -3 6 -8 10 -11 10 -2 0 -4
-4 -4 -10z"/>
<path d="M1369 58 c-7 -13 -18 -27 -25 -31 -8 -4 -14 -13 -14 -19 0 -6 14 3
30 20 17 18 30 36 30 42 0 16 -9 11 -21 -12z"/>
<path d="M2320 75 c0 -6 4 -15 9 -21 5 -5 11 -20 14 -34 l4 -25 2 26 c0 14 -6
34 -14 45 -8 10 -15 14 -15 9z"/>
<path d="M2750 73 c0 -13 29 -38 35 -31 3 3 -4 13 -15 23 -11 10 -20 13 -20 8z"/>
<path d="M283 63 c9 -2 25 -2 35 0 9 3 1 5 -18 5 -19 0 -27 -2 -17 -5z"/>
<path d="M2068 63 c7 -3 16 -2 19 1 4 3 -2 6 -13 5 -11 0 -14 -3 -6 -6z"/>
<path d="M2488 63 c18 -2 45 -2 60 0 15 2 0 4 -33 4 -33 0 -45 -2 -27 -4z"/>
<path d="M2903 63 c15 -2 39 -2 55 0 15 2 2 4 -28 4 -30 0 -43 -2 -27 -4z"/>
<path d="M1032 25 c0 -17 2 -22 5 -12 2 9 2 23 0 30 -3 6 -5 -1 -5 -18z"/>
<path d="M130 15 c-11 -13 -10 -14 4 -9 9 3 16 10 16 15 0 13 -6 11 -20 -6z"/>
<path d="M537 23 c-4 -3 -7 -11 -7 -17 0 -6 5 -5 12 2 6 6 9 14 7 17 -3 3 -9
2 -12 -2z"/>
<path d="M840 19 c0 -5 5 -7 10 -4 6 3 10 8 10 11 0 2 -4 4 -10 4 -5 0 -10 -5
-10 -11z"/>
<path d="M977 23 c-4 -3 -7 -11 -7 -17 0 -6 5 -5 12 2 6 6 9 14 7 17 -3 3 -9
2 -12 -2z"/>
<path d="M1407 23 c-4 -3 -7 -11 -7 -17 0 -6 5 -5 12 2 6 6 9 14 7 17 -3 3 -9
2 -12 -2z"/>
<path d="M1840 15 c-8 -9 -8 -15 -2 -15 12 0 26 19 19 26 -2 2 -10 -2 -17 -11z"/>
<path d="M2280 15 c-11 -13 -10 -14 4 -9 9 3 16 10 16 15 0 13 -6 11 -20 -6z"/>
<path d="M2717 23 c-4 -3 -7 -11 -7 -17 0 -6 5 -5 12 2 6 6 9 14 7 17 -3 3 -9
2 -12 -2z"/>
<path d="M2781 14 c0 -11 3 -14 6 -6 3 7 2 16 -1 19 -3 4 -6 -2 -5 -13z"/>
<path d="M55 10 c-3 -5 -1 -10 4 -10 6 0 11 5 11 10 0 6 -2 10 -4 10 -3 0 -8
-4 -11 -10z"/>
<path d="M798 13 c7 -3 16 -2 19 1 4 3 -2 6 -13 5 -11 0 -14 -3 -6 -6z"/>
<path d="M2028 13 c6 -2 18 -2 25 0 6 3 1 5 -13 5 -14 0 -19 -2 -12 -5z"/>
<path d="M2903 13 c9 -2 25 -2 35 0 9 3 1 5 -18 5 -19 0 -27 -2 -17 -5z"/>
</g>
</svg>
