<svg id="Calque_3" data-name="Calque 3" xmlns="http://www.w3.org/2000/svg" viewBox="0 0 300 300"><defs><style>.cls-1{fill:#2f3264;}.cls-2{fill:#ff575a;}</style></defs><title>CHAUSSURE_FILAIRE_300X300</title><path class="cls-1" d="M223.41,136l-1-.55,1,.55s0,0,.06.06Z"/><path class="cls-1" d="M200,191.75a.68.68,0,0,0,.28,0c.11-.26.24-.52.35-.78A2.18,2.18,0,0,1,200,191.75Z"/><path class="cls-2" d="M224.41,141.4a15.62,15.62,0,0,0-.55-1.94,37.22,37.22,0,0,0-1.8-4.17h0a.59.59,0,0,0-.09-.2l0-.11-.26-.52c-.17-.28-.26-.48-.3-.54-1.65-3.57-8.28-5.06-10.26-5.43h-.15c-2.2-2.71-7.09-4.08-8.93-4.52a14,14,0,0,0-6,.05l0-.11c-1.6-4.07-2.48-4.74-2.78-5-3.5-2.61-9.26-2.37-9.91-2.33a3.69,3.69,0,0,0-.46.08l-.15-.32c-.58-1.31-1.06-2.22-1.08-2.26a2,2,0,0,0-.46-.59c-3.55-3.17-8.37-6.8-11.22-6.11l-2.28.57h-.07a8.34,8.34,0,0,0-.8-1,1.14,1.14,0,0,0-.15-.17c-4.24-4.41-7.26-5-8.8-5-.22-.37-4-6.57-9.54-6.7a2.1,2.1,0,0,0-.51,0s-.41.09-1,.26l-.69.2a34.5,34.5,0,0,0-4.5,1.82,24.74,24.74,0,0,0-4.3,2.65,18.85,18.85,0,0,0-1.55,1.33,14.08,14.08,0,0,0-2.93,4,11.11,11.11,0,0,0-.85,2.27,6.73,6.73,0,0,0,.65,5.69,3.5,3.5,0,0,0,2.68,1.46h.19c1.33,0,3-.94,7.33-4,.3-.23.61-.45.93-.67a14.84,14.84,0,0,0-2.43,4,4.54,4.54,0,0,0,.46,4.18,4.74,4.74,0,0,0,3.73,2.12l2.57.09c2.06,0,5-1.5,9.11-4.3.08.3.13.56.19.82.89,4,2,8.9,6.65,9H164a4,4,0,0,0,3-1.47c1.59-1.72,2.64-4.87,2.77-8.05,0,0,0,0,0,0,2.58,9.71,4.78,11.75,5.5,12.41a6.67,6.67,0,0,0,4.49,2.15,4.24,4.24,0,0,0,1.59-.33c1.83-.78,3-2.86,3.18-5.76,7,11.39,9,11.67,10.08,11.81a2.55,2.55,0,0,0,.39,0,2.69,2.69,0,0,0,1.87-.74c.52-.48,1.87-1.78.8-6.7l.37.13a2,2,0,0,1,1.35,1.87,27.12,27.12,0,0,0,.72,6.31,3.28,3.28,0,0,0,3.24,2.45,4.9,4.9,0,0,0,.54,0,9.91,9.91,0,0,0,5.24-3.13,11.26,11.26,0,0,0,1.39-1.72c2.76,5.46,6.67,11.83,9.91,12.46a3.71,3.71,0,0,0,.67.06,3.27,3.27,0,0,0,2.27-.93C224.66,145.74,225,143.94,224.41,141.4Zm-81.9-35.76c-.78.55-1.54,1.11-2.28,1.65-2.28,1.63-3.59,2.46-4.33,2.89a5.26,5.26,0,0,1,.16-1.43,8.15,8.15,0,0,1,.56-1.45,10.18,10.18,0,0,1,2-2.74c.37-.35.78-.68,1.22-1a25.2,25.2,0,0,1,7.45-3.75l1-.31a4.8,4.8,0,0,1,2.19.85,30.74,30.74,0,0,0-5.11,3.19C144.51,104.17,143.51,104.92,142.51,105.64Zm21.32,16.09c-1-.35-1.67-2.76-2.32-5.63-.26-1.11-.51-2.66-.72-3.89a2.17,2.17,0,0,0-1.31-1.63,2.1,2.1,0,0,0-.82-.16,2.21,2.21,0,0,0-1.26.39c-6.31,4.48-8.54,5.42-9.28,5.42-1.05,0-1.87,0-2.5-.09a.33.33,0,0,1-.29-.17.27.27,0,0,1,0-.29,16,16,0,0,1,3.85-5.13,13.86,13.86,0,0,1,2.37-1.69,33.19,33.19,0,0,1,6.39-2.69h0c.39,0,2.3.3,5.56,3.69v0l0,0a7.83,7.83,0,0,1,1.93,4.55C165.83,117.88,164.59,121,163.83,121.73Zm16.47,2.58a4.78,4.78,0,0,1-.58,2.52,3.9,3.9,0,0,1-1.48-1c-.46-.42-2.17-2.46-4.26-10.35-.24-.87-.45-1.74-.63-2.54a48,48,0,0,1,4.56,3.54c.16.33.44.91.76,1.61a26.09,26.09,0,0,1,1,2.73,12.38,12.38,0,0,1,.62,3.37Zm7-3.13a8.27,8.27,0,0,1,3.15,1.13,21.49,21.49,0,0,1,1.52,3.28.31.31,0,0,0,.07.14c.06.15.11.32.18.5a32.71,32.71,0,0,1,1.3,4.34A92.9,92.9,0,0,1,187.28,121.18Zm16.82,14.46a37.54,37.54,0,0,1-.36-4.33,6,6,0,0,0-.61-2.54c2.47.85,4.39,2,4.58,2.59C207.67,132.57,205.52,134.87,204.1,135.64Zm10.68-1.59a5.57,5.57,0,0,1,2.67,1.74c.06.09.17.33.35.67l.22.42a.15.15,0,0,0,0,.08,21.64,21.64,0,0,1,2.24,5.76A47.32,47.32,0,0,1,214.78,134.05Z"/><path class="cls-1" d="M287.72,168.26s0,0,0,0c-.48-3.37-2.55-14.24-8.83-17.94-10.54-6.21-28.45-6.39-36.1-6.49-1.07,0-2.17,0-2.56,0h0s-.06,0-.1,0l-.37-.13-.33-.11-.09,0-.08,0a1,1,0,0,0-.26-.09c-.87-.31-1.77-.67-2.7-1.05l-.09,0-.06,0c-.2-.09-.41-.17-.59-.26l-.09,0c-.24-.09-.49-.2-.78-.33-.48-.2-1-.43-1.46-.65l-.43-.2c-.3-.13-.57-.28-.87-.41l-.21-.09-1.12-.54-.08-.05a7.48,7.48,0,0,1-.7-.34l-.54-.28c-.35-.16-.7-.35-1.07-.53l-2.15-1.1c-.84-.44-1.65-.89-2.48-1.33h0l-.1-.06-1-.55a1.84,1.84,0,0,0-.35-.15,37.22,37.22,0,0,1,1.8,4.17,15.62,15.62,0,0,1,.55,1.94c.62.34,1.21.63,1.8.93.37.18.72.37,1.09.56l.52.25.82.41c.4.21.81.39,1.22.58l.17.09c.31.13.61.28.9.41l.43.2,1.5.67.89.39.68.29.17.08a.2.2,0,0,1,.11,0c.82.34,1.61.65,2.41,1a2.28,2.28,0,0,1-.13.28.18.18,0,0,0-.05.07,1.7,1.7,0,0,1-.25.31,2.86,2.86,0,0,1-.29.36c-.19.18-.39.37-.63.57l0,0a1.83,1.83,0,0,1-.31.24l-.39.26a12.12,12.12,0,0,1-1.37.74c-1.48.69-3,1.46-4.45,2.28,0,0-.05,0-.07,0a.47.47,0,0,0-.1.05c-1.74,1-3.31,2-4.81,3l0,0a.41.41,0,0,1-.11.07A73.27,73.27,0,0,0,212,166a84.32,84.32,0,0,0-11.75,16.23c-1.26,2.26-2.44,4.59-3.5,6.92v0c-.44,1-.85,1.91-1.24,2.87a191.82,191.82,0,0,1-35.3-1c-2.41-.33-4.78-.72-7-1.18s-4.35-1-6.26-1.52c-.67-.18-1.33-.39-2-.59a203.49,203.49,0,0,0-34.4-7.32c-1.07-.15-2.17-.29-3.26-.42-6.24-.78-13-1.47-20.65-2.06-1-1.91-2.09-3.8-3.15-5.59-9.09-15.6-34.43-39.79-48.73-52.83l0,0c1.48-5.61,4.87-16.18,8.89-20.67,1.13.69,2.89,2.48,2.78,7.06-.22,9.54,2.32,20.73,24.06,22.76,7.84.74,19.19-2.55,33.77-9.81a2.16,2.16,0,0,0,1.18-2c0-.44,0-.92,0-1.5v-.66l0-.67c.06-2.35.24-5.13.54-8.26a28,28,0,0,1,.5-3.39,15.53,15.53,0,0,1,7-10.17,15.82,15.82,0,0,1,12.32-2,33.69,33.69,0,0,1,8.18,3l7.58,4.28a34.5,34.5,0,0,1,4.5-1.82l.69-.2-10.64-6A36.11,36.11,0,0,0,126.79,86a20.29,20.29,0,0,0-15.66,2.57,19.87,19.87,0,0,0-8.9,12.95,35.38,35.38,0,0,0-.56,3.85q-.42,4.34-.54,7.76a1,1,0,0,1-.22.08c-1.11.37-2.28.72-3.44,1l-.12,0-1.26.33-.09,0-.39.11c-.63.15-1.26.3-1.87.43l-1.46.31-.45.1c-.46.09-.9.16-1.37.26h-.11l-1.26.23-.4.07c-.56.08-1.12.17-1.69.24s-1.11.17-1.68.24l-1,.11c-.22,0-.44.06-.72.08l-.78.07c-.42.06-.83.09-1.24.11a.08.08,0,0,1-.07,0c-.39,0-.76.06-1.17.09-1.48.1-2.93.15-4.33.17H74.89c-.28,0-.56,0-.85,0s-.45,0-.73,0l-.85,0-1-.08c-.22,0-.44,0-.74-.07l-.61-.06-.17,0-.74-.1c-.22,0-.46-.07-.72-.13a2.13,2.13,0,0,1-.44-.07l-.5-.11-.41-.11-.52-.13c-.2-.08-.43-.13-.67-.22a7.87,7.87,0,0,1-.76-.34c-.07,0-.14-.07-.24-.11s-.16-.09-.24-.15c-2.48-1.57-4.61-6-6.68-10.35-3.25-6.8-6.6-13.84-12.84-12.28a7.62,7.62,0,0,0-3,1.52h0a1.68,1.68,0,0,0-.44.29C35.4,100.06,31.16,116,30.25,119.6l-.06.06a4.94,4.94,0,0,0-.37.33s-.05.06-.09.09l-.07.06-.26.28c-.24.29-.47.57-.67.85a16.33,16.33,0,0,0-.89,1.52l-.11.24s0,0,0,.07a7.12,7.12,0,0,0-.31.71c-.06.13-.11.29-.19.44a.47.47,0,0,1,0,.09c-.13.36-.24.71-.37,1.08a3.19,3.19,0,0,1-.13.37l-.06.2s0,.06,0,.08c-.11.39-.22.78-.33,1.2a.07.07,0,0,1,0,.06,5,5,0,0,1-.11.5l-.07.31c0,.15-.06.3-.1.45s-.05.31-.09.48l0,.16c-.09.45-.18.93-.24,1.36a2.57,2.57,0,0,0-.07.4c-.06.34-.11.69-.15,1-.09.6-.17,1.21-.24,1.85s-.11,1.21-.17,1.88l0,.46c0,.35-.08.68-.1,1.07s0,.52,0,.74c0,.5-.08,1-.1,1.56,0,.3,0,.59,0,.83l0,.82c-.06,1.85-.08,3.72-.08,5.55v.84l0,1.55c0,1,.06,2.06.08,3l.18,4.5c0,.24,0,.5,0,.78.17,2.93.35,5.24.46,6.5-1.11,1.24-2.59,3.8-4.54,9a26.32,26.32,0,0,0-.85,3c-.15.74-.29,1.56-.42,2.39s-.26,1.91-.34,2.78a1.55,1.55,0,0,0,0,.31c-.06.61-.11,1.24-.15,1.87l-.06,1.06,0,.28c0,.18,0,.37,0,.55v.08a3,3,0,0,0,0,.41v.18s0,.3,0,.33v.58l0,1.22v1.78l.91,10.72a8.78,8.78,0,0,0,1.31,3.8,3.2,3.2,0,0,0,.5.54,2.72,2.72,0,0,0,1,.53,3.49,3.49,0,0,1,.72.49,25.06,25.06,0,0,1,3.28,3.44l.39.46a2.31,2.31,0,0,0,1.57.82l.3,0a17.56,17.56,0,0,0,10.74-2.5l.15,0a23.38,23.38,0,0,1,6.7.7c.37.35,1.37,1.28,2.87,2.72l.91.89a2.71,2.71,0,0,0,1.32.63l.25,0,.21,0a16.53,16.53,0,0,0,6.93-.87,17.91,17.91,0,0,1,5.63-.89h.7c3.41,0,6.93,0,9.15-1.5l.76,0a4.71,4.71,0,0,0,4.52,3.47h0l8.89-.08a2.29,2.29,0,0,0,1.5-.55,2.28,2.28,0,0,0,2,1.4l13.67.88a2.29,2.29,0,0,0,1.7-.62,2.08,2.08,0,0,0,.67-1.09,2.34,2.34,0,0,0,2.26,1.84h.09l11.73-.41a3.87,3.87,0,0,0,3.51-2.54,4,4,0,0,0,3.65,2.69l10.43.26a3.81,3.81,0,0,0,3.85-3.25h.24a3.76,3.76,0,0,0,3.58,2.82l10.52.22a3.72,3.72,0,0,0,3.67-2.78l.72,0a3.65,3.65,0,0,0,3.35,2.36l11.89.26h.08a3.43,3.43,0,0,0,3.09-2l.67,0,0,0a3.42,3.42,0,0,0,3.07,2.11l10.24.21a4.4,4.4,0,0,0,4.21-3l1,0A4.27,4.27,0,0,0,204,215l9.06.16h.08a4.36,4.36,0,0,0,4.33-3.51h1.35l.47.51a4.45,4.45,0,0,0,4.07,1.54l8.63-1.26a3.3,3.3,0,0,0,2.74-2.44l.84-.17.26.46a3.33,3.33,0,0,0,3.4,1.63l2.19-.35c6-.92,12.8-2,18.32-5.11,17.59-10,27.65-31,28.19-35.17,0-.08,0-.19,0-.3s0-.13,0-.19c0-.22,0-.42,0-.51v-1.1A2.43,2.43,0,0,0,287.72,168.26ZM54.11,107c2.33,4.87,4.72,9.91,8.26,12.15l.48.28c.18.09.37.2.52.26a9.38,9.38,0,0,0,1,.44,8.89,8.89,0,0,0,1,.32l.55.16c.2.06.41.1.61.15l.54.13.59.11.82.13a9,9,0,0,0,1,.13,7.11,7.11,0,0,0,.81.1l.82.07c.35,0,.72.06,1.05.07a8.68,8.68,0,0,0,1,.06c.26,0,.53,0,.77,0s.63,0,1,0h1.22c1.46,0,3-.08,4.59-.19.43,0,.84,0,1.26-.09l1.28-.11c.3,0,.61-.06.89-.1s.52,0,.76-.09l1-.11c.59-.07,1.19-.15,1.78-.24l1.72-.26.47-.07c.26,0,.5-.1.76-.13-8.21,3.18-14.9,4.61-19.71,4.15C50.33,122.4,50.59,111.71,50.72,106a13.7,13.7,0,0,0-2-8.07C50.57,99.58,52.36,103.3,54.11,107ZM28.86,146.79c0-1.81,0-3.65.07-5.41l0-.81c0-.26,0-.52,0-.78v-.11c0-.46,0-.93.07-1.44,0-.23,0-.43.06-.73s0-.64.07-1l0-.44c.05-.62.11-1.23.17-1.78s.13-1.15.22-1.71c0-.31.09-.64.13-1a.22.22,0,0,0,0-.11.57.57,0,0,1,0-.15s0-.07,0-.09c.06-.43.13-.83.21-1.22l.05-.21.06-.33a.33.33,0,0,0,0-.15,2.37,2.37,0,0,1,.08-.31l0-.23c.05-.18.09-.37.14-.55.1-.35.19-.71.28-1l.06-.2a2,2,0,0,1,.09-.26c.11-.34.2-.65.31-1a4.49,4.49,0,0,0,.19-.44l.22-.48.09-.19a7.13,7.13,0,0,1,.58-1,2.63,2.63,0,0,1,.29-.37c.34.3.67.61,1,.91a3.7,3.7,0,0,1,.36.33c.9.82,1.83,1.69,2.79,2.58s1.84,1.7,2.78,2.59c14.17,13.3,32.88,32.06,40.25,44.69.29.54.61,1.08.91,1.61s.55.95.81,1.43h0l.1.17c-5.89-.43-11.53-.76-16.62-1.06-13.19-.76-24.56-1.42-28.54-3-3-1.22-5.19-2.66-6.28-4.22l0-.33-.07-.13a5.44,5.44,0,0,1-.24-3.32.62.62,0,0,0,0-.2l-.06-.71s0-.11,0-.31c0,0,0,0,0,0-.07-.92-.31-3.59-.51-7.11,0-.28,0-.57,0-.8L29,152.07c0-1-.05-2-.07-3l0-1.54Zm228.56,55.68c-4.76,2.7-11.11,3.69-16.72,4.56l-1.32.2-.28-.48a3.34,3.34,0,0,0-3.5-1.61l-2.7.5a3.36,3.36,0,0,0-2.6,2.39l-5.68.83-1.84.33-.46-.53a4.44,4.44,0,0,0-3.35-1.58l-1.45,0a4.45,4.45,0,0,0-4.4,3.52l-8.8-.14a4.26,4.26,0,0,0-4.06-3.17l-1.5,0a4.25,4.25,0,0,0-4.17,3l-9.2-.19,0,0a3.56,3.56,0,0,0-3.26-2.11l-2.35.07a3.41,3.41,0,0,0-3,1.91l-10.28-.23a3.79,3.79,0,0,0-3.54-2.38l-2.22,0a3.7,3.7,0,0,0-3.52,2.76l-9-.18a3.82,3.82,0,0,0-3.58-2.82l-1.72,0a3.82,3.82,0,0,0-3.84,3.25l-9-.23a4,4,0,0,0-4-3.35l-.94,0a3.94,3.94,0,0,0-3.78,3.2l-8.87.3a4.47,4.47,0,0,0-4.19-3.52,4.59,4.59,0,0,0-3.3,1.21,4.39,4.39,0,0,0-1.27,2.11l-9.23-.58a4.05,4.05,0,0,0-7.78-1l-3.18,0-4,0a4.59,4.59,0,0,0-4.76-3.41l-.74,0a4.62,4.62,0,0,0-2.31.82c-1.17.74-5,.7-6.5.68h-.8a22.37,22.37,0,0,0-7.13,1.17,12.22,12.22,0,0,1-4.56.65l-.31-.32c-3.34-3.19-3.5-3.35-4.06-3.56-2.22-1-7-1.35-9.33-1.11a4.43,4.43,0,0,0-1.73.52,13,13,0,0,1-7.5,2,26.69,26.69,0,0,0-3.67-3.78,9,9,0,0,0-1.48-1,12.63,12.63,0,0,1-.4-1.65l0-.18c-.08-.39-.13-.8-.19-1.15a5.35,5.35,0,0,0-.07-.56,1.11,1.11,0,0,0,0-.28l0-.35c-.15-1.39-.26-2.83-.34-4.26l-.11-2.92v-1.93l0-1.22v-.24l0-.74v-.17a.16.16,0,0,1,0-.09v-.21c0-.13,0-.26,0-.42l0-.35c0-.34,0-.65.06-1,0-.57.07-1.16.15-1.89.07-.92.2-1.81.31-2.68s.24-1.41.39-2.06a14,14,0,0,1,.67-2.33c.4-1.1.78-2,1.13-2.87,1.59,2.4,4.44,4.44,8.46,6.07,4.67,1.87,15.26,2.48,30,3.35,6.21.36,13.24.76,20.51,1.34,8,.61,15,1.29,21.52,2.11,1.07.13,2.13.28,3.2.43a199.74,199.74,0,0,1,33.62,7.13c.7.22,1.43.44,2.11.63,2,.57,4.13,1.11,6.59,1.61s4.84.89,7.34,1.24a201.5,201.5,0,0,0,37.47,1c7.56-.43,15.48-1.17,23.48-2.21a2.13,2.13,0,0,0,.25,0c19.72-2.6,39.22-7,50.91-11.39a42.61,42.61,0,0,0,7.67-3.63C275.18,186.62,267.79,196.6,257.42,202.47Zm25.49-33a25,25,0,0,1-5.54,5.82,35.48,35.48,0,0,1-7.28,3.5c-11.39,4.33-30.54,8.59-50,11.15a.2.2,0,0,0-.11,0c-6.76.87-13.4,1.54-19.77,2l.08-.18a.68.68,0,0,1-.28,0,2.18,2.18,0,0,0,.63-.8c1-2.24,2.13-4.46,3.35-6.61A79.06,79.06,0,0,1,215.15,169a66.93,66.93,0,0,1,11.45-9.88.09.09,0,0,1,.06,0c1.38-1,2.85-1.87,4.48-2.8l.11-.06c1.41-.79,2.83-1.52,4.22-2.16.24-.11.48-.24.72-.37a5.75,5.75,0,0,0,.65-.36,6,6,0,0,0,.69-.42,4.65,4.65,0,0,0,.55-.39,7.28,7.28,0,0,0,1.1-.91c.16-.15.31-.29.46-.46a6.42,6.42,0,0,0,.43-.48l.13-.17c.12-.17.25-.33.35-.5a6.65,6.65,0,0,0,.61-1.11,4.64,4.64,0,0,0,.26-.65s0,0,0,0a.43.43,0,0,0,0,0h1.26c6.69.07,24.42.26,34,5.89,4,2.37,6.06,10.5,6.71,14.54,0,.07,0,.13,0,.2C283.26,169,283.07,169.22,282.91,169.46Z"/></svg>