<?xml version="1.0" encoding="UTF-8"?>
<svg width="44px" height="44px" viewBox="0 0 44 44" version="1.1" xmlns="http://www.w3.org/2000/svg" xmlns:xlink="http://www.w3.org/1999/xlink">
    <!-- Generator: Sketch 57.1 (83088) - https://sketch.com -->
    <title>icon/user copy 3</title>
    <desc>Created with Sketch.</desc>
    <g id="Symbols" stroke="none" stroke-width="1" fill="none" fill-rule="evenodd">
        <g id="header/-porteur-/-B2B" transform="translate(-379.000000, -50.000000)" fill="#4A4A4A">
            <g id="Group-2" transform="translate(356.000000, 27.000000)">
                <g id="icon/user" transform="translate(23.119266, 23.119266)">
                    <path d="M37.5564062,28.4435938 C35.1602109,26.0474844 32.3081172,24.2736484 29.1963203,23.1998594 C32.5291484,20.9043828 34.71875,17.0627188 34.71875,12.71875 C34.71875,5.70564844 29.0131016,0 22,0 C14.9868984,0 9.28125,5.70564844 9.28125,12.71875 C9.28125,17.0627188 11.4708516,20.9043828 14.8037656,23.1998594 C11.6919687,24.2736484 8.839875,26.0474844 6.44367969,28.4435938 C2.28842969,32.5989297 0,38.1235937 0,44 L3.4375,44 C3.4375,33.7645859 11.7645859,25.4375 22,25.4375 C32.2354141,25.4375 40.5625,33.7645859 40.5625,44 L44,44 C44,38.1235937 41.7115703,32.5989297 37.5564062,28.4435938 Z M22,22 C16.8823359,22 12.71875,17.8365 12.71875,12.71875 C12.71875,7.601 16.8823359,3.4375 22,3.4375 C27.1176641,3.4375 31.28125,7.601 31.28125,12.71875 C31.28125,17.8365 27.1176641,22 22,22 Z" id="user"></path>
                </g>
            </g>
        </g>
    </g>
</svg>