<svg id="Calque_1" data-name="Calque 1" xmlns="http://www.w3.org/2000/svg" viewBox="0 0 490 100"><defs><style>.cls-1{fill:#fff;}</style></defs><title>Logo_E-Vone copie</title><path class="cls-1" d="M89,54A44,44,0,1,0,67.83,91.62H83.26l-6.84-6.83A43.85,43.85,0,0,0,89,54ZM45,83.65A29.65,29.65,0,1,1,69.18,36.83l-7.84,7.85L35.68,70.34l.33.19A18.83,18.83,0,0,0,63.38,58h11A29.66,29.66,0,0,1,45,83.65Z"/><path class="cls-1" d="M45,35.19A18.82,18.82,0,0,0,28.28,62.63l.15.29L53.92,37.43A18.76,18.76,0,0,0,45,35.19Z"/><polygon class="cls-1" points="191 25 177 63 163 25 149 25 172 82 177 82 182 82 205 25 191 25"/><path class="cls-1" d="M261,24c-17.12,0-31,13.43-31,30s13.88,30,31,30,31-13.43,31-30S278.12,24,261,24Zm0,48.87A18.87,18.87,0,1,1,279.5,54,18.69,18.69,0,0,1,261,72.87Z"/><polygon class="cls-1" points="430 70 430 59 455 59 455 47 430 47 430 37 456 37 456 25 430 25 419 25 417 25 417 82 421 82 430 82 458 82 458 70 430 70"/><polygon class="cls-1" points="367 25 367 64.48 343 25 339 25 337.43 25 326 25 326 82 339 82 339 41.44 364 82 367 82 369.41 82 380 82 380 25 367 25"/><circle class="cls-1" cx="120.5" cy="61.5" r="7.5"/><path class="cls-1" d="M483.35,29.69l-2-3.07a2.78,2.78,0,0,0-1.25-5.25h-3.4v8.28h1.07V26.93h2.36l1.74,2.76Zm-5.55-7.33h2.4a1.72,1.72,0,0,1,1.71,1.71v.15a1.72,1.72,0,0,1-1.71,1.71h-2.4Z"/><path class="cls-1" d="M479.75,17.37A8.26,8.26,0,1,0,488,25.62,8.25,8.25,0,0,0,479.75,17.37Zm0,15.15a6.9,6.9,0,1,1,6.9-6.9A6.9,6.9,0,0,1,479.75,32.52Z"/></svg>